<svg xmlns="http://www.w3.org/2000/svg" viewBox="0 0 630 630" fill="currentColor">
  <path
    d="M0,0V630H630V0ZM343.09,491.37c0,61.3-35.94,89.2-88.4,89.2-47.4,0-74.85-24.53-88.81-54.08l48.19-29.17c9.3,16.5,17.76,30.45,38.1,30.45,19.45,0,31.72-7.61,31.72-37.2V289.27h59.2ZM483,580.68c-55,0-90.5-26.2-107.88-60.54l48.11-27.95c12.69,20.72,29.2,35.95,58.4,35.95,24.53,0,40.2-12.26,40.2-29.2,0-20.3-16.1-27.49-43.1-39.3l-14.8-6.35c-42.72-18.2-71.1-41-71.1-89.2,0-44.4,33.83-78.2,86.7-78.2,37.64,0,64.7,13.1,84.2,47.4l-46.1,29.6c-10.15-18.2-21.1-25.37-38.1-25.37-17.34,0-28.33,11-28.33,25.37,0,17.76,11,24.95,36.4,35.95l14.8,6.34c50.3,21.57,78.7,43.56,78.7,93C581.07,551.48,539.2,580.68,483,580.68Z" />
</svg>