<?xml version="1.0" encoding="UTF-8"?>
<svg enable-background="new 0 0 24 24" version="1.1" viewBox="0 0 24 24" xml:space="preserve"
	xmlns="http://www.w3.org/2000/svg">
	<style type="text/css">
		.st0 {
			fill: currentColor;
		}

		.st1 {
			fill: #2E2E30;
		}
	</style>
	<circle class="st0" cx="11.61" cy="12.61" r="8.88" />

	<path class="st1" d="m11.25 4.31c-0.01-0.01-0.02-0.01-0.03-0.01 0.02 0.02 0.03 0.02 0.03 0.01z" />
	<path class="st1" d="M8.3,4.79c-0.04,0-0.08,0.01-0.12,0.02c0.02,0.01,0.03,0.01,0.06,0.01L8.3,4.79z" />
	<path class="st1" d="m13.29 4.46c-0.02-0.02-0.05-0.04-0.11-0.06 0.04 0.03 0.08 0.05 0.11 0.06z" />
	<path class="st1" d="M5.54,6.6C5.5,6.63,5.47,6.67,5.45,6.7C5.5,6.65,5.53,6.62,5.54,6.6z" />
	<path class="st1" d="m9.27 4.69c-0.04 0-0.08 0-0.11 0.01 0.04 0 0.08-0.01 0.11-0.01z" />
	<path class="st1" d="m11.27 4.29c0.01 0.03 0.08 0.01 0 0z" />
	<path class="st1" d="m12.22 4.26c-0.03-0.01-0.06-0.01-0.09-0.02 0.02 0.01 0.05 0.02 0.09 0.02z" />
	<path class="st1" d="m12.13 4.24c-0.03-0.01-0.05-0.02-0.08-0.01l0.08 0.01z" />
	<polygon class="st1" points="16.78 19.93 16.78 19.92 16.77 19.93" />
	<path class="st1" d="m17.64 7.64c-0.03 0.11 0.11 0.15 0.17 0.28-0.07-0.09-0.09-0.28-0.17-0.28z" />
	<path class="st1" d="m13.92 4.85c-0.07-0.06-0.37-0.1-0.49-0.11 0.15 0.03 0.49 0.18 0.49 0.11z" />
	<path class="st1"
		d="M8.38,4.95c0.08-0.02,0.23-0.08,0.25-0.14C8.51,4.86,8.4,4.92,8.28,5.02C8.33,5,8.4,5.01,8.38,4.95z" />
	<path class="st1" d="m7.28 5.38c0.05-0.05 0.13-0.08 0.09-0.11-0.04 0-0.14 0.1-0.09 0.11z" />
	<path class="st1" d="m1.52 11.47c-0.05 0.13-0.03 0.21 0.04 0.18 0.01-0.15-0.04-0.07-0.04-0.18z" />
	<polygon class="st1" points="1.53 11.84 1.47 11.92 1.56 11.82" />
	<path class="st1" d="m1.82 15.06-0.11-0.12c0.04 0.04 0.09 0.24 0.11 0.12z" />
	<polygon class="st1" points="4.41 19.34 4.6 19.47 4.57 19.44" />
	<path class="st1" d="m11.41 2.96 0.13 0.05c0.08-0.26-0.03-0.09-0.13-0.05z" />
	<path class="st1" d="m11.41 2.96-0.09-0.03c0.02 0.04 0.05 0.04 0.09 0.03z" />
	<path class="st1" d="m11.08 2.56c-0.22-0.17-0.55-0.09-0.56 0.27 0.19-0.23 0.45 0.05 0.56-0.27z" />
	<polygon class="st1" points="10.71 3.11 10.84 3.01 10.86 2.84" />
	<polygon class="st1" points="10.98 3.16 10.95 3.1 10.7 3.29" />
	<path class="st1"
		d="m9.83 2.81 0.2-0.08c0.23 0.2-0.07 0.33 0.08 0.47 0.24-0.04 0.01-0.5 0.34-0.47-0.05-0.22-0.51 0.08-0.51-0.27-0.31-0.07 0.01 0.2-0.11 0.35z" />
	<path class="st1" d="m4.19 11.55c-0.02 0.01-0.02 0.01-0.03 0.02 0.03-0.01 0.06-0.02 0.03-0.02z" />
	<path class="st1" d="m4.78 14.13c-0.02 0.04-0.03 0.09-0.03 0.12 0.03-0.02 0.06-0.05 0.07-0.07l-0.04-0.05z" />
	<path class="st1" d="m3.83 9.7c0.05-0.03 0.08-0.06 0.11-0.09-0.05 0.01-0.1 0.04-0.11 0.09z" />
	<path class="st1" d="m6.64 16.27c0.03 0.03 0.06 0.05 0.1 0.06-0.04-0.05-0.07-0.07-0.1-0.06z" />
	<path class="st1" d="m5.02 13.21c-0.02 0.04-0.03 0.07-0.02 0.1 0.02-0.04 0.02-0.07 0.02-0.1z" />
	<path class="st1" d="m6.71 3.57c-0.07 0-0.1 0.05-0.12 0.11 0.06 0.02 0.1 0 0.12-0.11z" />
	<path class="st1" d="m5.68 4.3v0c-0.03-0.04-0.02-0.03 0 0z" />
	<path class="st1" d="m5.05 4.79v-0.02c-0.03-0.01-0.03-0.01 0 0.02z" />
	<path class="st1"
		d="m6.59 3.67c-0.16-0.06-0.43-0.42-0.28 0.06l0.06 0.04c-0.13-0.05-0.13 0.17-0.2 0.24 0.03 0.03 0.06 0.06 0.09 0.08 0.04-0.02 0.1-0.04 0.2-0.06 0.15 0.02 0.09-0.21 0.13-0.36z" />
	<path class="st1" d="m4.1 11.53c0.09 0 0.05-0.07 0 0z" />
	<path class="st1" d="m3.83 10.64c-0.01 0.03-0.02 0.05-0.03 0.08 0.02-0.03 0.04-0.05 0.03-0.08z" />
	<path class="st1" d="m5.13 7.63h-0.02c0.04 0.04 0.04 0.02 0.02 0z" />
	<path class="st1" d="m3.79 10.8c0-0.03 0.01-0.05 0.02-0.08-0.03 0.02-0.05 0.05-0.02 0.08z" />
	<path class="st1"
		d="m20.04 5.21c0.09 0.05 0.02 0.17 0.04 0.26 0.37-0.04-0.24-0.33 0.16-0.27-0.05-0.07-0.13-0.1-0.2-0.12l-0.16 0.29c0.19 0.06 0.01-0.16 0.16-0.16z" />
	<path class="st1" d="m21.45 7.91c0 0.04 0.01 0.07 0.01 0.11 0.04-0.07 0.03-0.1-0.01-0.11z" />
	<path class="st1" d="m3.59 18.63c-0.05-0.01-0.11-0.02-0.15-0.03 0.05 0.04 0.1 0.05 0.15 0.03z" />
	<path class="st1" d="m17.39 15.14c0.27 0.21 0-0.04 0.21-0.04l-0.12-0.17c-0.08 0.05-0.06 0.15-0.09 0.21z" />
	<path class="st1" d="m20.05 5.06c-0.01 0.01-0.02 0.01-0.03 0.02h0.01l0.02-0.02z" />
	<path class="st1" d="m16.43 2.8c0.02-0.01 0.03-0.02 0.05-0.04-0.02 0.01-0.04 0.02-0.05 0.04z" />
	<path class="st1"
		d="m21.92 10.02c-0.02-0.09-0.03-0.17-0.05-0.26s-0.05-0.17-0.06-0.26l0.05 0.01c0.07-0.32-0.01-0.6-0.15-0.85-0.16-0.25-0.36-0.48-0.51-0.74 0.06 0.03 0.2-0.01 0.26 0-0.02-0.32-0.21-0.8-0.61-0.83 0.09-0.25 0.03-0.29-0.03-0.34s-0.13-0.1-0.1-0.4c0.04-0.06 0.08 0.01 0.11 0.03-0.02-0.26-0.14-0.39-0.23-0.62-0.26-0.15-0.5-0.17-0.7-0.22-0.21-0.05-0.37-0.15-0.51-0.41 0.37-0.36 0.34 0.19 0.65-0.05-0.14-0.04-0.29-0.05-0.31-0.25 0.22-0.05 0.11-0.07 0.3-0.13 0.01-0.19-0.75-0.04-0.71-0.06-0.08 0.06-0.09 0.13 0 0.21-0.32 0.11-0.4-0.41-0.71-0.51 0.06 0.07 0.2 0.33-0.04 0.43-0.2-0.33-0.62-0.05-0.93-0.05-0.09-0.39 0.45-0.17 0.65-0.47 0.04-0.14 0.12-0.45 0.33-0.45-0.19-0.28-0.58-0.18-0.85-0.28l0.07-0.08c-0.17-0.1-0.4-0.13-0.62-0.16-0.21-0.03-0.4-0.07-0.49-0.24l0.09 0.19c-0.08 0.02-0.24-0.11-0.43 0.02 0.08-0.12-0.02-0.33 0.06-0.43-0.4 0.32-0.9-0.12-1.25 0.27-0.04-0.16 0.11-0.33 0.19-0.44 0.2 0.13 0.23 0.27 0.43 0.13-0.18-0.08-0.26-0.27-0.18-0.37-0.32 0.22-0.81 0.19-1 0.48-0.08-0.21-0.18-0.34-0.05-0.59-0.32 0-0.3 0.23-0.3 0.43 0.01 0.2 0 0.38-0.3 0.3-0.22-0.33 0.38-0.28 0-0.47l0.09-0.02c-0.12-0.77-0.33 0.44-0.64 0.34 0.03-0.39 0.29-0.22 0.12-0.55-0.34 0.04-0.56 0.6-0.83 0.43l0.07-0.16c-0.19-0.01-0.56-0.11-0.76-0.08-0.04-0.1-0.01-0.09 0.03-0.11-0.36-0.17-0.16 0.19-0.45-0.09l-0.08 0.18c0.15 0.14 0.41 0.35 0.61 0.13-0.19 0.21 0.25 0.51 0.13 0.84l0.05-0.13c0.04 0.07 0.08 0.12 0.13 0.18-0.2-0.01-0.43 0.09-0.63 0.06 0.04-0.03 0.13 0 0.21-0.01-0.19-0.05-0.37-0.07-0.55-0.08-0.18-0.02-0.35-0.04-0.53-0.06-0.35-0.02-0.69-0.03-1.07-0.07l-0.19 0.17-0.08-0.03c0.08-0.13 0.01-0.53 0.21-0.52-0.13-0.05-0.15-0.23-0.09-0.36-0.15-0.02-0.46-0.02-0.36 0.16l0.06 0.03c0.02 0.13-0.05 0.19-0.07 0.26-0.19 0.06-0.14-0.18-0.2-0.27-0.33 0.01 0.1 0.48-0.18 0.54l-0.07-0.08c-0.06 0.11-0.17 0.19-0.21 0.33-0.09 0.02-0.18 0.04-0.27 0.07-0.08 0.02-0.15 0.04-0.23 0.07-0.03-0.16 0.06-0.18 0.18-0.18 0.15 0 0.34 0.03 0.35-0.18-0.19-0.08-0.02-0.35 0-0.52-0.12 0.15-0.25 0.3-0.36 0.45-0.07-0.08-0.33-0.35-0.32-0.08h0.04c-0.15 0.14 0 0.38-0.18 0.36-0.05-0.05-0.05-0.17-0.05-0.22-0.17 0.01-0.05 0.2-0.12 0.3-0.17 0.01-0.05-0.29-0.2-0.3-0.05 0.32-0.29 0.06-0.42 0.15 0.12 0.16 0.04 0.34 0.01 0.52v0.02c-0.08 0.04-0.14 0.07-0.2 0.11-0.04-0.06-0.07-0.12-0.12-0.17l0.26-0.14c-0.14-0.2-0.24-0.05-0.35 0.1-0.11 0.16-0.23 0.31-0.47 0.14-0.14 0.08-0.06 0.11-0.46 0.09l0.3 0.32c-0.18 0.02-0.36-0.14-0.42-0.2-0.06 0.08-0.13 0.12-0.21 0.16-0.02-0.06-0.03-0.13 0-0.18-0.25-0.12-0.23-0.03-0.18 0.1 0.02 0.13-0.06 0.18-0.14 0.25l-0.04-0.18c-0.02 0.07-0.05 0.16 0 0.22-0.03 0.03-0.05 0.06-0.06 0.11 0.07 0.04 0.29 0.18 0.47 0.18-0.38 0.12-0.53 0.36-1 0.35-0.08-0.1-0.11-0.31-0.14-0.29-0.16 0.08-0.12 0.36 0.03 0.48-0.01 0.03-0.03 0.05-0.04 0.07-0.1-0.05-0.22-0.1-0.28-0.05-0.05-0.01-0.09-0.01-0.14 0.02 0.22 0.26-0.09 0.4-0.01 0.55 0.07-0.04 0.12-0.11 0.17-0.19 0.04 0.1 0.09 0.21 0.12 0.29l-0.1 0.1c-0.09-0.2-0.4 0.02-0.28-0.29-0.51-0.06 0.17 0.3-0.11 0.42l-0.25 0.04c-0.19-0.17 0.07-0.31-0.03-0.33l-0.05 0.12c-0.08-0.21 0.29-0.51 0.26-0.92-0.16 0.12-0.31 0.25-0.47 0.39-0.05 0.2-0.15 0.37-0.24 0.56-0.09 0.18-0.2 0.36-0.29 0.54-0.1 0.18-0.17 0.37-0.21 0.56s-0.04 0.38 0.02 0.58v-0.03c0.02 0.02 0.06 0.04 0.15 0.09h-0.07c0.03 0.05 0.07 0.1 0.11 0.16-0.01 0.01-0.02 0.02-0.02 0.03-0.24 0.05-0.37 0.26-0.61 0.4 0.2-0.08 0.2-0.08 0.38-0.03 0 0.01 0.01 0.02 0.03 0.02-0.04 0.07-0.06 0.13-0.09 0.2-0.02 0-0.05 0.01-0.09 0.03 0.03-0.01 0.05-0.01 0.08-0.01-0.03 0.07-0.06 0.13-0.09 0.19 0 0.19 0.07-0.11 0.08-0.01 0 0.03 0 0.05-0.01 0.07-0.08 0.07-0.14 0.14-0.26 0.1-0.03-0.06 0.04-0.08 0.08-0.11-0.04-0.07-0.22 0.17-0.32-0.03v0.22c-0.18 0.08-0.21-0.14-0.31-0.12 0.01 0.19 0.11 0.36 0.21 0.52s0.2 0.3 0.24 0.47c-0.1-0.04-0.49-0.12-0.38-0.09-0.07 0.11 0 0.24 0.09 0.38-0.05 0.03-0.08 0.07-0.06 0.11l0.12-0.03c0.05 0.07 0.11 0.15 0.14 0.22-0.01 0.01-0.01 0.02-0.02 0.03 0-0.03 0-0.06-0.02-0.09-0.04 0.1-0.07 0.2-0.09 0.3-0.08 0.02-0.03-0.19-0.01-0.3-0.13-0.05-0.14 0.38-0.24 0.18-0.02 0.26 0.07-0.02 0.1 0.14l-0.06 0.22 0.07-0.16c0.01 0.19 0.1 0.27-0.01 0.5 0.01 0.02 0.01 0.04 0.02 0.05-0.02 0.08-0.03 0.16-0.05 0.23-0.03 0.16-0.06 0.31-0.09 0.47 0-0.05 0.04-0.09-0.02-0.12l-0.04 0.19c0.02 0 0.03 0.01 0.04 0.02l-0.06 0.21-0.02-0.01c0 0.01 0.01 0.03 0.01 0.05-0.03 0.13-0.07 0.25-0.12 0.38 0.1 0.04 0.21 0.08 0.31 0.11 0.01 0.05 0.02 0.1 0.04 0.14l-0.15 0.16c-0.03 0.22-0.04 0.43-0.01 0.63 0.04 0.19 0.1 0.38 0.17 0.55 0.08 0.21 0.2 0.41 0.32 0.61 0.01 0.02 0.02 0.05 0.03 0.08 0.05 0.1 0.14 0.22 0.14 0.32-0.01 0-0.02-0.01-0.03-0.02 0.01 0.02 0.01 0.03 0.01 0.04-0.07-0.12-0.18-0.31-0.28-0.32 0.08 0.21 0.24 0.1 0.25 0.39 0.03 0.04 0.05 0.09 0.06 0.13-0.01 0.01-0.03 0.02-0.04 0.03-0.01-0.03-0.02-0.06-0.04-0.1l0.02 0.06c-0.03-0.01-0.03 0.16-0.11 0 0.01 0.04 0.03 0.07 0.05 0.09-0.05 0.03-0.09 0.07-0.1 0.11 0.1 0.27 0.27 0.39 0.46 0.49 0.01 0 0.01 0.01 0.02 0.01 0.15 0.29 0.21 0.07 0.35 0.37-0.04-0.11 0.12 0.03 0.06-0.12l0.09 0.09c0.01 0.01 0.01 0.02 0.02 0.02-0.15 0.01-0.51 0.07-0.41 0.28 0.13-0.02 0.3-0.09 0.31 0.07h-0.15c-0.09 0.21 0.13 0.23 0.21 0.51 0.09 0.11 0.19 0.21 0.31 0.29 0.07 0.15 0.17 0.28 0.27 0.32 0-0.04 0.03-0.11 0.08-0.14 0.07 0.03 0.15 0.05 0.23 0.06 0.04 0.04 0.09 0.09 0.14 0.16-0.07 0.02-0.22-0.17-0.27-0.11 0.02 0.05 0.05 0.1 0.07 0.15-0.25-0.31-0.08 0.16-0.29-0.08 0.04 0.12 0.14 0.12 0.22 0.21l-0.06 0.03c0.04 0.01 0.07 0.02 0.11 0.03 0.01 0.01 0.02 0.03 0.02 0.04v-0.04c0.05 0.02 0.09 0.05 0.12 0.09-0.05-0.01-0.08-0.01-0.06 0.05l0.09 0.07c0 0.05-0.02 0.1-0.06 0.16 0.17 0.15 0.22 0.25 0.53 0.26-0.14 0-0.12-0.14 0.01-0.19 0.04 0.03 0.07 0.06 0.11 0.09 0.04 0.05 0.09 0.11 0.14 0.17l-0.2-0.14-0.02 0.03 0.22 0.11c0.1 0.13 0.17 0.27 0.02 0.41 0.85 0.66 1.84 1.38 2.92 1.81 0.25-0.11-0.11-0.12 0.04-0.21 0.35-0.13 0.16 0.2 0.44 0.09l-0.16 0.16c0.15 0.07 0.35 0.05 0.54 0 0.1-0.02 0.2-0.06 0.3-0.1 0.04 0.03 0.08 0.05 0.11 0.08 0.06 0.01 0.11 0.02 0.17 0.02 0.04 0.05 0.06 0.08-0.1 0.12 0.15 0 0.11 1.04 0.29 0.87 0.01-0.32 0.02-0.64 0.04-0.96 0.09 0.01 0.18 0.03 0.26 0.05 0.08 0.18 0.18 0.35 0.26 0.36 0.01 0.24-0.23 0.16-0.36 0.13-0.11 0.4 0.41 0.33 0.14 0.66 0.31-0.02-0.01-0.21 0.2-0.33l0.24 0.12-0.18-0.16c0.23-0.09 0.34-0.38 0.59-0.12 0.11-0.11 0.22-0.24 0.32-0.37 0 0.32 0.2 0.07 0.34 0.15l-0.1 0.2c0.2 0 0.27 0.06 0.39 0.18-0.12 0.27-0.18-0.08-0.24 0.19l0.22 0.1c0-0.18 0.14-0.31-0.01-0.43 0.2-0.31 0.31-0.58 0.74-0.6h0.04c0.24 0.3-0.22 0.28-0.12 0.58 0.39 0.07 0.51-0.38 0.65-0.65l0.15-0.03c0.08-0.02 0.15-0.04 0.23-0.06l-0.01 0.02c0.26-0.02 0.51-0.08 0.74-0.17h0.01c0.06 0.02 0.12 0.05 0.15 0.1l-0.1 0.25c0.1-0.09 0.23-0.04 0.23 0.12-0.09-0.27 0.42-0.37 0.63-0.59l-0.09-0.16c0.09-0.03 0.18-0.07 0.26-0.12 0.15-0.08 0.28-0.17 0.34-0.26 0.04 0 0.07-0.01 0.1-0.01-0.12 0.16-0.21 0.35-0.32 0.52-0.12 0.19-0.27 0.36-0.48 0.35-0.01 0.3 0.06 0.27 0.16 0.18s0.21-0.26 0.34-0.2c0.01 0.04 0 0.05-0.02 0.06 0.02-0.01 0.03-0.01 0.05 0-0.12 0.12-0.32 0.3-0.28 0.59 0.24-0.13 0-0.62 0.38-0.48 0.16-0.23 0.51 0.13 0.67 0.11 0.07-0.27-0.12-0.7 0.25-0.78l-0.01 0.37c0.4-0.18-0.02-0.52 0.33-0.68-0.14 0.02-0.04-0.34-0.27-0.24 0.01-0.08 0.06-0.16 0.12-0.22h0.01c0-0.01 0.01-0.01 0.01-0.01 0.09-0.08 0.21-0.14 0.33-0.16 0.02-0.06-0.03-0.09-0.08-0.17 0.02-0.03 0.04-0.06 0.07-0.09 0.02-0.02 0.03-0.04 0.05-0.06-0.01 0.05-0.01 0.09-0.03 0.11l0.05 0.02c-0.03 0.01-0.05 0.02-0.08 0.03-0.04 0.1 0.05 0.03 0.12-0.02l0.04 0.01c0 0.01-0.01 0.01-0.01 0.02l0.02-0.02 0.1 0.03c-0.02-0.03-0.04-0.05-0.05-0.07 0.02-0.03 0.05-0.05 0.06-0.08l-0.08-0.01c0.01-0.05 0.04-0.1 0.06-0.15-0.01-0.02-0.02-0.03-0.03-0.04 0.04-0.04 0.09-0.07 0.14-0.12 0.03 0.02 0.05 0.04 0.07 0.06-0.06 0.08-0.2 0.17-0.15 0.24 0.05-0.07 0.1-0.14 0.18-0.2 0.07 0.11 0.1 0.25 0.12 0.38h-0.05c0.1 0.1 0.1 0.15 0.26 0.13-0.02-0.16-0.16-0.28-0.25-0.42 0.06-0.03 0.11-0.14 0.15-0.24 0.11-0.03 0.19-0.21 0.46-0.22 0.13 0.37-0.29 0.21-0.14 0.53 0.24-0.11 0.14-0.34 0.4-0.45 0.09 0.16-0.11 0.34 0.04 0.5 0.07-0.01 0.14-0.02 0.21-0.03-0.34 0.29 0.36 0.31 0.13 0.6 0.24 0.01 0-0.38 0.33-0.36-0.16-0.08-0.49-0.18-0.41-0.44l0.26-0.09c0.2 0.06 0.06 0.48 0.29 0.48l0.12-0.28c-0.08-0.07-0.22-0.03-0.26-0.2 0.2-0.02-0.11-0.48-0.1-0.71 0.1-0.09 0.19-0.16 0.32-0.11 0-0.24 0.07-0.44 0.14-0.63s0.11-0.39 0.08-0.6c0.05 0.3 0.31 0.23 0.52 0.22-0.11 0.23 0.16 0.44 0.35 0.57 0.07-0.15-0.16-0.45-0.3-0.46 0.27-0.13-0.09-0.28 0.24-0.33 0.19-0.05 0.24 0.25 0.38 0.29 0.18-0.23-0.31-0.3-0.08-0.52 0.03 0.04 0.03 0.07 0.09 0.08 0.15-0.11 0.1-0.35-0.03-0.46 0.24 0.04 0.3-0.08 0.33-0.17 0.03-0.1 0.05-0.17 0.24-0.05 0.07-0.42-0.24-0.06-0.34-0.2-0.1-0.23 0.17-0.43 0.27-0.49-0.03 0.09 0.04 0.23-0.07 0.28l0.31 0.06c0.42-0.38-0.48-0.56-0.08-0.91 0.06 0.29 0.19 0.16 0.34 0.36-0.04-0.1 0.17-0.43-0.13-0.3 0.09-0.16 0.18-0.26 0.28-0.37-0.05-0.19-0.09-0.38-0.26-0.53 0.09-0.23 0.35-0.36 0.51-0.45-0.03-0.29 0.03-0.53 0.11-0.79 0.04-0.13 0.08-0.26 0.09-0.39 0.02-0.13 0-0.28-0.05-0.42l-0.02 0.04c0.08-0.43-0.42 0.16-0.38-0.28 0.37 0.08 0.27-0.26 0.47-0.4 0.09-0.28 0.01-0.53-0.06-0.76-0.04-0.12-0.07-0.23-0.08-0.35-0.02-0.12-0.02-0.24 0.02-0.38 0.08-0.01 0.18 0.01 0.2 0.11 0.07-0.16 0.05-0.34 0.02-0.51zm-16.58-5.5-0.02-0.08c0.01 0.03 0.02 0.06 0.02 0.08zm0.87 1.47c0.03 0.02 0.1 0.04 0.08 0.07-0.04-0.02-0.07-0.04-0.08-0.07zm-1.26 1.62h-0.06c-0.01-0.1-0.04-0.16 0.06 0zm-0.79 2.02c-0.03 0.07-0.12 0.13-0.3 0.11-0.16-0.1-0.08-0.24 0.05-0.34 0.12-0.1 0.24-0.16 0.13-0.15-0.06-0.26 0.07-0.13 0.17-0.11-0.16 0.17-0.11 0.32-0.27 0.48 0.07-0.01 0.17 0.01 0.22 0.01zm9.16-5.08c-0.08-0.03-0.15-0.07-0.16-0.14 0.14-0.1 0.6 0.27 0.52 0.17 0.24 0.04 0.15 0.07 0.16 0.1-0.21-0.11-0.35-0.13-0.54-0.22 0.02 0.03 0.01 0.07 0.02 0.09zm2.17 0.93v0.02h-0.03l-0.02-0.03c0.02 0 0.04 0.01 0.05 0.01zm-2.93-1.82h-0.04c0-0.01 0.01-0.02 0.01-0.03l0.03 0.03zm-2.33 0.51c0.26 0.02-0.03 0.09 0.1 0.13-0.04 0.05-0.22 0.02-0.38 0.04-0.15 0.02-0.28 0.06-0.23 0.19-0.13 0.02-0.27 0.14-0.45 0.16 0.17 0.01 0.4 0.06 0.59-0.03l-0.01-0.14c0.15-0.03 0.17-0.13 0.28-0.12-0.05 0.04 0.06 0.1 0.18 0.08-0.04-0.02-0.09-0.01-0.07-0.04 0.23-0.02 0.25-0.12 0.53-0.16-0.23-0.03-0.28-0.07-0.5-0.12 0.05-0.1 0.15-0.02 0.28-0.04-0.02 0.01-0.05 0.02-0.01 0.04l0.13-0.06c0.29 0.03-0.03 0.15 0.2 0.19 0.16 0.09 0.22-0.04 0.35 0.02-0.01-0.01-0.02-0.02-0.02-0.03 0.03 0 0.05 0.01 0.06 0.01v-0.01c0.15-0.01 0.31 0.01 0.36-0.07 0.01 0.03 0.13 0 0.19-0.02 0.09-0.02 0.3-0.08 0.41 0.07h-0.01c0.19 0.04 0.33 0.1 0.28 0.14 0.1 0.03 0.19 0.07 0.29 0.1l-0.05 0.09c0.27 0.04 0.26-0.02 0.47-0.07 0.04 0.03 0.1 0.05 0.16 0.07s0.12 0.05 0.18 0.06c0.12 0.04 0.24 0.06 0.31 0.06 0.02 0.01 0.05 0.02 0.11 0.04l-0.1-0.08c0.2 0.08 0.2 0.02 0.34 0.07-0.02-0.02-0.03-0.03 0.04 0.02-0.02-0.01-0.03-0.01-0.04-0.02 0.01 0.01 0.03 0.02 0.05 0.04v-0.01c0.02 0.01 0.04 0.03 0.07 0.04-0.01 0.01-0.04-0.01-0.07-0.03l0.01 0.04c0.11 0.18 0.26 0.07 0.42 0.18-0.02 0-0.05-0.01-0.07-0.02 0.08 0.07 0.15 0.26 0.23 0.2 0.02 0.02 0.06 0.03 0.1 0.02l0.06 0.06c-0.02-0.02-0.04-0.04-0.06-0.05 0.05 0 0.11-0.01 0.11 0.01l0.15 0.11c0.04 0.07 0.09 0.11 0.16 0.1 0.02 0.01 0.04 0.02 0.06 0.02l0.02 0.06c0.01 0 0.01 0.01 0.01 0.01-0.05 0.02-0.13 0-0.17 0.03-0.06 0.24 0.21-0.08 0.18 0.08 0 0-0.03 0.04-0.06 0.05 0.25 0.12 0.3 0.32 0.48 0.53 0.1-0.12 0.17-0.15 0.23-0.15 0.03 0.03 0.05 0.06 0.08 0.1 0.03 0 0.04-0.02 0.04-0.03 0.05 0.04 0.09 0.08 0.16 0.06-0.02 0.01-0.03 0.03-0.04 0.04l-0.12-0.03c0.05 0.02 0.09 0.04 0.12 0.05-0.03 0.08 0.05 0.2 0.05 0.29l0.14-0.06 0.03 0.16c0.21 0.13 0.06-0.04 0.15-0.09l-0.15-0.08 0.13-0.07c0.09 0.17 0.18 0.34 0.08 0.37 0.19 0.23 0-0.13 0.13-0.05l0.02 0.03c-0.06-0.09-0.08-0.18-0.09-0.26 0.01-0.01 0.02-0.02 0.03-0.01 0 0.09-0.03 0.21 0.1 0.23l0.03-0.1c0.04 0 0.08 0.03 0.11 0.07l-0.1 0.03c0.06 0.05 0.11 0.07 0.15 0.09 0.01 0.02 0.01 0.04 0.02 0.07l-0.01-0.01-0.1 0.06c0.1 0.13 0.02-0.03 0.08-0.01 0.01 0.02 0.03 0.05 0.05 0.07 0.01 0.12-0.01 0.26-0.05 0.36 0.12 0.04 0.22 0.09 0.32 0.14 0.02 0.07 0.03 0.14 0.1 0.22 0.02-0.03 0.04-0.09 0-0.16 0.1 0.07 0.19 0.15 0.25 0.24-0.01 0.01-0.03 0-0.07-0.02 0.03 0.06 0.08 0.07 0.12 0.08 0.01 0.02 0.02 0.03 0.03 0.05 0 0.01 0 0.02-0.01 0.03h0.03c0.12 0.21 0.17 0.45 0.18 0.7 0.02 0.27 0.02 0.53 0.02 0.81 0.01 0.14 0.02 0.27 0.06 0.4 0.02 0.14 0.06 0.28 0.13 0.42 0.15 0.05 0.21-0.11 0.42-0.1 0.08 0.12 0.08 0.15 0.11 0.27 0.1-0.13-0.05-0.08 0.08-0.1l-0.17-0.16c0.03-0.02 0.05 0 0.11-0.03-0.06-0.05-0.16-0.1-0.16-0.19 0.06 0.04 0.16 0.05 0.24 0.07 0.02 0.05 0.04 0.1 0.02 0.11 0.02-0.01 0.01-0.05-0.01-0.11 0.06 0 0.11 0.06 0.15 0.12 0 0.01 0 0.02-0.01 0.04-0.05 0-0.07-0.02-0.11-0.06 0.01 0.14 0.17 0.11 0.1 0.23-0.05 0.14 0.04 0.09-0.1 0.13l-0.12 0.4c0.21 0.07 0.24 0.17 0.19 0.27s-0.14 0.18-0.16 0.21c-0.3-0.02-0.1-0.24-0.41-0.3-0.07 0.05-0.13 0.1-0.2 0.15l0.24-0.02-0.06 0.19-0.05-0.01c0.09 0.01 0.19 0.03 0.11 0.08-0.03 0.01-0.1 0.03-0.11 0.01l0.14 0.12c-0.25-0.07-0.07 0.12-0.35 0.11-0.05 0.2 0.02 0.33 0.08 0.46s0.09 0.25-0.11 0.41c0.14-0.05 0.43 0.16 0.36 0.27-0.08 0.06-0.14 0.06-0.25 0.01l0.12 0.17c-0.23 0.06-0.28 0.14-0.3 0.23-0.03 0.1-0.03 0.21-0.13 0.32l-0.12-0.04c0.12 0.13 0.21 0.27 0.12 0.4l-0.23-0.1c-0.23 0.11 0.45 0.29 0.23 0.43 0.25 0.09 0.43 0.01 0.68 0.08-0.28-0.04-0.39 0.16-0.19 0.18 0.03 0.25-0.06 0.14-0.12 0.13 0.03 0.06 0.08 0.12 0.1 0.18-0.08 0.14-0.34-0.1-0.46-0.21 0.2 0.24-0.05 0.3-0.16 0.41l-0.08-0.11-0.13 0.16c0.13 0.22 0.03 0.38-0.15 0.47l-0.24-0.28c-0.22 0 0.07 0.11 0.11 0.17 0.05 0.25-0.17 0.16-0.39 0.12 0.06 0.22-0.14 0.25-0.32 0.28-0.17 0.04-0.34 0.06-0.22 0.32l-0.18-0.12c0.05 0.26-0.09 0.38-0.24 0.46-0.14 0.09-0.26 0.19-0.16 0.53-0.39-0.16-0.34 0-0.29 0.18 0.06 0.18 0.11 0.37-0.23 0.21l0.07 0.08c-0.57 0.29-1.2 0.48-1.81 0.6-0.15 0.04-0.31 0.05-0.45 0.09-0.15 0.03-0.29 0.07-0.44 0.09-0.15 0.03-0.29 0.06-0.43 0.11-0.14 0.04-0.29 0.07-0.43 0.12v-0.15c-0.92-0.09-1.79-0.22-2.63-0.52-0.83-0.29-1.64-0.76-2.23-1.44-0.21-0.03-0.37 0.27-0.6 0.27-0.04-0.06-0.16-0.16-0.02-0.28 0.16 0.03 0.23-0.13 0.31-0.14-0.07-0.07-0.13-0.18-0.18-0.29s-0.12-0.19-0.26-0.2l-0.09 0.27c-0.12 0-0.14-0.13-0.17-0.2 0.11-0.05 0.26-0.27 0.34-0.26-0.36 0.02-0.34-0.1-0.28-0.21 0.05-0.12 0.15-0.24-0.03-0.32-0.47 0.21-1.01 0-1.48-0.15 0.01-0.07 0.04-0.13 0.06-0.2 0.07 0.2 0.32-0.14 0.41 0.1 0.01-0.12-0.04-0.21-0.09-0.3-0.06-0.08-0.12-0.17-0.12-0.27-0.1 0.08-0.26 0.12-0.34 0.06 0.02-0.14 0.24-0.23 0.24-0.37 0.06 0.03 0.12 0.06 0.19 0.09 0.15-0.14-0.1-0.15-0.15-0.22 0.19-0.08 0.18-0.29 0.41-0.31-0.32-0.11-0.19-0.2-0.39-0.36-0.18 0.25-0.28 0-0.44 0.05 0.04 0.08 0.07 0.15 0.12 0.23 0.03-0.18 0.05-0.16 0.1-0.1s0.14 0.15 0.31 0.09c-0.12 0.19-0.62-0.09-0.5 0.16-0.13-0.14-0.15-0.24-0.19-0.34-0.03-0.1-0.08-0.19-0.25-0.35 0.1 0.2-0.23-0.01-0.32 0.12-0.06-0.27 0.11-0.08 0.32-0.2-0.04-0.14 0.17-0.21-0.1-0.33 0.09-0.24 0.27 0.02 0.4-0.11 0.13 0.03 0.05 0.2 0.06 0.33 0.01 0.14 0.09 0.25 0.47 0.16 0.03 0.11 0.34 0.19 0.34 0.34 0.08-0.16 0.31-0.37 0.11-0.51l-0.43 0.05c-0.03-0.13-0.33-0.12-0.3-0.22 0.13 0.04 0.31-0.07 0.27-0.17-0.06 0.03-0.04 0.08-0.12 0.07-0.06-0.12-0.36-0.14-0.46-0.38-0.1 0.21-0.23 0.25-0.41 0.47-0.31-0.03-0.05-0.14-0.09-0.26 0.04 0.02 0.05 0.04 0.11 0l-0.15-0.12c0.12-0.27 0.44 0.02 0.58-0.19 0.26-0.14-0.13-0.2 0.02-0.31-0.03 0.01-0.06 0.01-0.08 0.02 0.01-0.02 0.01-0.04 0.02-0.05h-0.02c-0.04-0.14-0.01-0.28-0.23-0.34 0.1-0.01-0.02-0.13-0.08-0.18-0.08-0.09-0.32-0.32 0.07-0.38v0.01c0.07-0.17 0.2-0.28 0.32-0.22 0.04-0.08 0.1-0.17 0.15-0.25l0.28 0.1c-0.02-0.26-0.2-0.28-0.45-0.54 0.05-0.03 0.09-0.08 0.11-0.13 0.03-0.05 0.05-0.1 0.06-0.16 0.01-0.12-0.01-0.25-0.04-0.32 0.02-0.02 0.03-0.05 0.03-0.1l-0.15 0.06c0.09-0.19-0.07-0.23-0.02-0.36-0.04 0.02-0.05 0.02 0.02-0.04-0.01 0.02-0.01 0.03-0.02 0.04 0.02 0 0.04-0.02 0.06-0.03l-0.04-0.01c0.01-0.02 0.03-0.04 0.05-0.06 0.03 0.02 0.02 0.05-0.01 0.07l0.1 0.02c0.36-0.02-0.05-0.31 0.12-0.42 0 0.02 0.01 0.06 0 0.07 0.12-0.06 0.55 0.02 0.34-0.14 0.04 0 0.01-0.06-0.03-0.12l0.08-0.04c-0.03 0.02-0.05 0.03-0.08 0.04-0.05-0.08-0.12-0.17-0.06-0.14l0.18-0.19c0.06-0.02 0.06-0.09 0.05-0.16l0.13 0.03c0.03-0.09 0.09-0.05 0.11-0.02 0.27-0.01 0.29-0.12 0.32-0.26 0.02-0.13 0.04-0.28 0.29-0.29-0.12-0.19-0.28-0.14-0.37-0.2-0.05-0.07-0.07-0.17-0.07-0.26 0-0.02 0.01-0.03 0.02-0.05 0.06-0.05 0.19-0.18 0.23-0.13-0.09 0.13 0.01 0.11-0.01 0.16 0.02-0.02 0.05-0.04 0.08-0.07 0.05 0.17 0.1 0.34 0.16 0.5-0.05-0.25-0.02-0.24-0.12-0.51l-0.02-0.01c0.06-0.05 0.13-0.11 0.2-0.15 0.2 0.01 0.39 0.05 0.51 0.24 0.22-0.16-0.24-0.12-0.24-0.32l0.04-0.01c-0.05 0.01-0.11 0.01-0.17 0 0.06-0.06 0.12-0.12 0.17-0.18l-0.2 0.05c0.05-0.07 0.14-0.12 0.21-0.17l0.14 0.18c0.09-0.04 0.04-0.06-0.02-0.09 0.13-0.22 0.24-0.24 0.32-0.26 0.06 0 0.12-0.01 0.2-0.05 0.03 0.05 0.04 0.09-0.01 0.13 0.14 0 0.3 0.11 0.39 0.02-0.1-0.1-0.26-0.24-0.36-0.13l-0.01-0.02c0.03-0.02 0.07-0.05 0.12-0.09-0.01-0.07 0.04-0.17 0.12-0.27 0.02 0.03 0.03 0.08 0.04 0.14 0.08 0 0.03-0.14 0.02-0.21l0.02-0.02c0.02 0 0.04 0.02 0.08 0.07-0.01-0.06-0.03-0.09-0.04-0.11 0.05-0.05 0.1-0.11 0.16-0.16 0.02 0 0.04 0.01 0.06 0.01-0.01-0.02-0.01-0.04-0.02-0.06 0.05-0.05 0.1-0.09 0.14-0.14 0.01 0 0.01 0.01 0.02 0.01 0-0.01-0.01-0.01-0.01-0.02 0.02 0 0.03-0.02 0.04-0.03 0.06-0.02 0.12-0.02 0.18-0.03-0.22 0.08 0.05 0.1-0.22 0.22 0.12-0.04 0.22-0.08 0.33-0.13 0.1-0.05 0.21-0.1 0.32-0.12-0.05-0.02-0.06-0.08 0.02-0.12 0.14-0.02 0.18 0.04 0.33 0.01-0.04 0.02-0.09 0.05-0.13 0.09 0.12 0.02 0.18-0.07 0.28-0.11 0.05 0.06 0.28 0.01 0.26 0.1 0.18-0.14 0.27-0.12 0.48-0.21-0.25-0.04 0.04-0.1 0.01-0.15-0.09 0.02-0.18 0.04-0.27 0.07 0.19-0.02 0.16 0 0.09 0.02s-0.18 0.08-0.15 0.13c-0.19-0.01 0.2-0.25-0.09-0.16 0.17-0.08 0.28-0.1 0.39-0.12s0.22-0.05 0.4-0.13c-0.22 0.06 0.03-0.08-0.09-0.09h0.01l0.07 0.04 0.03-0.06c0.09 0-0.02 0.06 0.06 0.11 0.16-0.03 0.22 0.04 0.36-0.06zm-0.62-1.11c0.13 0.11 0.02 0.29-0.03 0.43l-0.08-0.02c-0.06 0-0.12 0.01-0.18 0.01 0-0.01 0-0.02-0.01-0.04h-0.14c0.17-0.14 0.24-0.5 0.44-0.38zm-5.67 15.63c0 0.01-0.01 0.01 0 0l-0.01-0.01 0.01 0.01zm-0.15-0.16c-0.02 0.01-0.05 0.02-0.07 0.04 0.01-0.04 0.03-0.05 0.07-0.04zm0.56 0.57c0.01 0 0.03-0.01 0.04-0.01l0.03 0.06c-0.02-0.02-0.04-0.03-0.07-0.05zm11.06 1.63c0.04-0.03 0.09-0.07 0.22-0.12l0.03 0.09c-0.09-0.04-0.16 0-0.25 0.03zm0.53-0.16c-0.02 0-0.04-0.01-0.06-0.01l0.06-0.03v0.04zm0.97-0.99 0.01-0.01-0.01 0.01zm0.08 0.12c0.01-0.01 0.02-0.01 0.03-0.02-0.02 0.1 0.01 0.06 0.01 0.11-0.02-0.03-0.03-0.06-0.04-0.09zm0.15-0.3c0.03-0.06 0.09-0.12 0.16-0.18 0.04 0.14-0.06 0.15-0.16 0.18z" />
	<path class="st1" d="m14.92 21.73c-0.02 0.01-0.04 0.02-0.07 0.04 0.03-0.02 0.05-0.03 0.07-0.04z" />
	<path class="st1" d="m8.98 2.31v0.15l0.19 0.05c-0.04-0.06-0.15-0.19-0.19-0.2z" />
	<path class="st1" d="M6.19,3.16C6.2,3,5.8,2.98,5.89,3.19L6.19,3.16z" />
	<path class="st1" d="m5.27 3.59c0.11 0.28-0.3 0.07-0.17 0.31 0-0.1 0.33-0.07 0.17-0.31z" />
	<path class="st1" d="m7.02 5.66c0.21 0.18 0.15-0.08 0.29-0.1-0.09 0.06-0.37-0.07-0.29 0.1z" />
	<path class="st1"
		d="m4.73 5.12c-0.14-0.15-0.04-0.22 0.08-0.27 0.01 0.07 0.06 0.16 0.04 0.22 0.04-0.25 0.07-0.24 0.13-0.41-0.22 0-0.47 0.11-0.62-0.09 0.03 0.21 0.14 0.53 0.37 0.55z" />
	<path class="st1" d="M3.96,5.31C3.95,5.04,4.19,4.92,4.05,4.63C3.89,4.82,3.79,5.13,3.82,5.3L3.96,5.31z" />
	<path class="st1" d="M5.98,6.5L5.96,6.74C6.08,6.78,6.2,6.83,6.32,6.88C6.37,6.63,6.18,6.73,5.98,6.5z" />
	<path class="st1" d="M2.01,8.98c-0.1-0.08-0.35,0.16-0.18,0.03C1.96,9.1,2.18,8.94,2.01,8.98z" />
	<path class="st1" d="M4.6,9.14C4.47,9.18,4.57,9.5,4.63,9.63C4.61,9.48,4.78,9.2,4.6,9.14z" />
	<path class="st1" d="m5.39 14c0.01 0.01 0.02 0.01 0.05 0.02-0.02-0.01-0.03-0.01-0.05-0.02z" />
	<path class="st1"
		d="m5.28 13.94c0.02-0.08-0.1-0.18-0.25-0.16 0.09 0.08 0.17 0.16 0.36 0.22-0.03-0.04 0.05-0.12-0.11-0.06z" />
	<path class="st1" d="m5.37 14.85c-0.04 0.05 0.14 0.09 0.21 0.01-0.1-0.01-0.09-0.09-0.21-0.01z" />
	<path class="st1" d="m10.29 22.62c0.14 0.1 0.24 0.04 0.22-0.16-0.17-0.01-0.1 0.12-0.22 0.16z" />
	<polygon class="st1" points="10.71 22.53 10.8 22.69 10.7 22.43" />
	<path class="st1" d="m11.67 22.85c0.06-0.03 0.11-0.06 0.06-0.09 0 0.03-0.03 0.07-0.06 0.09z" />
	<path class="st1" d="m11.57 22.81-0.01 0.11c0.02-0.02 0.05-0.03 0.08-0.05-0.03 0.01-0.06-0.01-0.07-0.06z" />
	<path class="st1" d="m11.89 22.97 0.16-0.19-0.21-0.31c-0.2 0.17 0.24 0.16 0.05 0.5z" />
	<path class="st1"
		d="m13.65 21.71c-0.57-0.09-0.15 0.76-0.68 0.63 0.28 0.19-0.14 0.21-0.21 0.31 0.21 0.07 0.41-0.46 0.57-0.11 0.25-0.14 0.19-0.29 0.14-0.43-0.06-0.14-0.09-0.27 0.18-0.4z" />
	<path class="st1" d="m12.87 22.08c-0.07-0.01-0.21-0.25-0.28-0.04-0.01 0.19 0.23 0.17 0.28 0.04z" />
	<polygon class="st1" points="13.96 22.42 13.97 22.29 13.76 22.31" />
	<path class="st1" d="m14.39 22.23-0.1 0.25c0.03-0.09 0.27-0.14 0.1-0.25z" />
	<path class="st1" d="m15.17 21.93 0.07-0.01c0.01 0.08 0.24 0.18 0.06 0.29 0.19 0.02 0.13-0.49-0.13-0.28z" />
	<path class="st1" d="m16.68 20.89 0.18-0.23-0.09-0.01c-0.09 0.05-0.16 0.16-0.09 0.24z" />
	<path class="st1" d="m17.06 21.02c0.12 0.13 0.27-0.01 0.21-0.16 0 0.14-0.14 0.14-0.21 0.16z" />
	<path class="st1"
		d="m17.74 19.87c-0.17 0.26 0.02 0.82-0.35 0.56 0.03 0.2 0.05 0.39 0.07 0.59 0.27-0.06-0.04-0.42 0.12-0.49 0.15 0.05 0.08 0.15 0.19 0.18 0.24-0.01 0.41-0.15 0.39-0.35-0.12-0.08-0.39-0.32-0.42-0.49z" />
	<path class="st1" d="m18.94 18.93-0.09 0.07c-0.03 0.08-0.05 0.17-0.08 0.25 0.06-0.1 0.11-0.21 0.17-0.32z" />
	<polygon class="st1" points="19.09 19.25 19.13 18.9 19.01 19.17" />
	<polygon class="st1" points="19.24 19.23 19.35 18.99 19.31 19.01" />
	<path class="st1" d="m19.63 18.67c0-0.1 0.13-0.24 0.26-0.2l-0.17-0.05c-0.01 0.1-0.27 0.12-0.09 0.25z" />
	<path class="st1" d="m17.47 14.56c0 0.02 0.01 0.07-0.05 0.05 0.08 0.08 0.18 0.1 0.28 0.12l-0.23-0.17z" />
	<path class="st1"
		d="m17.79 14.72c0.12-0.03-0.03-0.21 0.07-0.26l0.09 0.08c-0.08-0.1-0.16-0.19-0.24-0.28-0.11 0.17 0.12 0.29 0.08 0.46z" />
	<path class="st1"
		d="m18.67 11.1c0.2-0.01 0.18-0.05 0.32 0.08-0.14-0.18-0.13-0.34-0.19-0.55-0.12 0.06-0.36-0.06-0.3 0.01l0.16 0.21-0.14-0.01c-0.14 0.17 0.24 0.07 0.15 0.26z" />
	<path class="st1" d="m12.9 2.65c0.04-0.09 0.02-0.19-0.01-0.28-0.2 0.08 0.05 0.27 0.01 0.28z" />

</svg>