<svg fill="currentColor" viewBox="0 0 159 147.95">
  <path
    d="M69,5,66,6c-6,2-11,5-14,9l-2,3L35,44c-6,7.27-6,17.6,0,27C45,84,66,91,83,86l62-21,18-30S110-4,69,5Zm67,54L80,76.46a31.54,31.54,0,0,1-8.67,1.16h0c-11,0-22.22-5-28.14-12.38-3.42-5.53-3.6-11.08-.46-14.89l.52-.64L58.5,23.28l1.63-2.45c1.64-2,4.83-3.94,9-5.34l2.47-.83a51.57,51.57,0,0,1,10.41-1c25.58,0,54.19,16,67.49,24.36Z"
    transform="translate(-4 -3.65)" />
  <path
    d="M132.88,80A44.39,44.39,0,0,0,85.29,65L23.83,85,4,120l.86.15c3.47,2.58,54,39.5,93.34,29.85l3-1c9.36-2.77,15.35-8.9,17.17-16l16.51-30C138.83,96,137.84,88,132.88,80Zm-6.72,18.07L109,129.27l-.32,1.23c-1,4-4.78,7.28-10.31,8.91l-.18.05-2.74.92a49.17,49.17,0,0,1-11.18,1.23h0c-25.68,0-54.24-16.66-66.85-25L30.61,93.31,88.28,74.55a34.31,34.31,0,0,1,36.4,11.21C129,93.05,126.87,96.82,126.16,98.07Z"
    transform="translate(-4 -3.65)" />
  <path
    d="M114,115a45,45,0,0,0-48-15L4,120s53,40,94,30l3-1C118,144,124,128,114,115Zm-5.58,16c-1.22,3.77-5,6.82-10.24,8.38l-.34.1-2.59.87A50,50,0,0,1,84,141.6h0c-20.16,0-42.09-10.16-56.8-18.57L69,109.55a35,35,0,0,1,37.17,11.62C108.65,124.48,109.45,127.89,108.42,131Z"
    transform="translate(-4 -3.65)" />
  <path
    d="M52,35l-4,1C31,41,26,57,35,71,45,84,66,91,83,86l62-21S92,26,52,35ZM80,76.46a31.54,31.54,0,0,1-8.67,1.16h0c-11,0-22.22-5-28.14-12.38-2.58-4.18-3.27-8.41-1.95-11.95s4.57-6.18,9.4-7.64l3.66-.92a48.89,48.89,0,0,1,10.46-1.08c20,0,42.28,10.22,57.16,18.61Z"
    transform="translate(-4 -3.65)" />
</svg>