<svg xmlns="http://www.w3.org/2000/svg" viewBox="0 0 93.19 112" fill="currentColor">
  <path
    d="M94.16,22.82h0C83.76,7.93,63.22,3.52,48.37,13L22.28,29.61a30,30,0,0,0-13.52,20,31.53,31.53,0,0,0,3.11,20.23A30,30,0,0,0,7.4,81.07a31.86,31.86,0,0,0,5.44,24.11c10.4,14.89,30.94,19.3,45.79,9.84L84.72,98.39a30,30,0,0,0,13.52-20,31.53,31.53,0,0,0-3.11-20.23A30,30,0,0,0,99.6,46.93,31.86,31.86,0,0,0,94.16,22.82ZM86.7,44.16a18.59,18.59,0,0,1-.63,2.44l-.49,1.5-1.33-1A33.49,33.49,0,0,0,74,42l-1-.3.09-1a5.83,5.83,0,0,0-1-3.88,6.25,6.25,0,0,0-6.69-2.49,5.65,5.65,0,0,0-1.61.71L37.73,51.72a5.42,5.42,0,0,0-2.45,3.63,5.76,5.76,0,0,0,1,4.37A6.25,6.25,0,0,0,43,62.21a5.65,5.65,0,0,0,1.61-.71l10-6.34a19,19,0,0,1,5.29-2.33,20.73,20.73,0,0,1,22.24,8.25,19.17,19.17,0,0,1,3.28,14.5,18,18,0,0,1-8.13,12L51.12,104.25a18.86,18.86,0,0,1-5.3,2.33h0a20.71,20.71,0,0,1-22.24-8.24,19.19,19.19,0,0,1-3.28-14.5,17.14,17.14,0,0,1,.63-2.44l.49-1.5,1.33,1A33.49,33.49,0,0,0,33,86l1,.3-.09,1a5.83,5.83,0,0,0,1,3.88,6.25,6.25,0,0,0,6.69,2.49,5.65,5.65,0,0,0,1.61-.71L69.27,76.28a5.42,5.42,0,0,0,2.45-3.63,5.76,5.76,0,0,0-1-4.37A6.25,6.25,0,0,0,64,65.79a5.47,5.47,0,0,0-1.6.71l-10,6.34a19,19,0,0,1-5.29,2.33A20.73,20.73,0,0,1,25,66.92a19.17,19.17,0,0,1-3.28-14.5A18,18,0,0,1,29.8,40.37L55.88,23.75a18.86,18.86,0,0,1,5.3-2.33,20.71,20.71,0,0,1,22.24,8.24A19.19,19.19,0,0,1,86.7,44.16Z"
    transform="translate(-6.9 -8)" />
</svg>