<?xml version="1.0" encoding="utf-8"?>
<!-- Generator: Adobe Illustrator 25.3.1, SVG Export Plug-In . SVG Version: 6.00 Build 0)  -->
<svg version="1.1" xmlns="http://www.w3.org/2000/svg" xmlns:xlink="http://www.w3.org/1999/xlink" x="0px" y="0px"
	 viewBox="0 0 2541 1261" style="enable-background:new 0 0 2541 1261;" xml:space="preserve">
<style type="text/css">
	.st0{display:none;}
	.st1{display:inline;fill:none;stroke:#D82238;stroke-miterlimit:10;}
	.st2{fill:#292929;}
	.st3{fill:#F8D5B5;}
	.st4{fill:#4D4DF7;}
	.st5{fill:#3939B5;}
	.st6{fill:#D1A37D;}
	.st7{display:inline;}
	.st8{fill:#2E2E30;}
</style>
<g id="cut" class="st0">
	<rect x="536" y="233.5" class="st1" width="1565" height="686.5"/>
</g>
<g id="default">
	<g>
		<g>
			<path class="st2" d="M1614.85,588.96c3.61-270.24-165.99-392.02-165.99-392.02s-88.47-56.15-265.42-56.15
				c-176.95,0-265.42,56.15-265.42,56.15s-169.6,121.78-165.99,392.02H1614.85z"/>
			<path class="st3" d="M1540.63,588.96c3.2-10.57,4.94-21.43,4.94-32.23c0-59.62-52.69-120.93-115.53-126.63
				c-164.12-16.44-329.09-16.44-493.21,0c-62.25,6.48-116.28,66.44-115.53,126.64c-0.14,10.85,1.52,21.7,4.67,32.23H1540.63z"/>
			<path class="st4" d="M1492.36,411.43c0,0,155.33-11.65,273.95-245.15c0,0,0.75-65.57-77.17-109.02c0,0-54.11,203.42-170.2,289.42
				L1492.36,411.43z"/>
			<path class="st5" d="M1681.22,169.6c-32.69,58.56-97.36,160.31-177.61,214.42l15.33-37.33c116.09-86,170.2-289.42,170.2-289.42
				c77.92,43.45,77.17,109.02,77.17,109.02c-3.17,6.25-6.38,12.33-9.6,18.26c-2.83-5.81-6.29-11.82-10.49-17.93
				C1730.11,143.23,1695.06,144.81,1681.22,169.6z"/>
			<path class="st4" d="M1566.82,407.01c0,0,153.51-133.93,280.87-94.61c0,0,114.04,135.99,75.55,265.03
				c0,0-169.79-145.89-321.77-99.21L1566.82,407.01z"/>
			<path class="st5" d="M1847.7,312.4c-10.34-3.19-20.86-5.24-31.45-6.31c23.78,28.5,50.63,67.83,65.18,113.02
				c11.35,35.24-23.54,67.78-58.04,54.36c-60.88-23.68-153.03-47.87-234.75-21.63l12.84,26.38
				c151.97-46.68,321.77,99.21,321.77,99.21C1961.74,448.39,1847.7,312.4,1847.7,312.4z"/>
			<g>
				<path class="st2" d="M1069.67,529.09c-3.8,0-7.6-1.63-10.62-4.92c-28.52-31.14-79.14-27.47-79.64-27.43
					c-8.64,0.69-16.15-7.08-16.75-17.38c-0.6-10.3,5.9-19.23,14.55-19.96c2.62-0.22,64.5-4.95,103.1,37.18
					c6.4,6.99,6.83,18.82,0.96,26.44C1078.16,527.05,1073.92,529.09,1069.67,529.09z"/>
			</g>
			<g>
				<path class="st2" d="M1297.2,529.09c3.8,0,7.6-1.63,10.62-4.92c28.52-31.14,79.14-27.47,79.64-27.43
					c8.64,0.69,16.15-7.08,16.75-17.38c0.6-10.3-5.9-19.23-14.55-19.96c-2.62-0.22-64.5-4.95-103.1,37.18
					c-6.4,6.99-6.83,18.82-0.96,26.44C1288.71,527.05,1292.95,529.09,1297.2,529.09z"/>
			</g>
			<path class="st4" d="M1614.73,475.46c-3.96-23.9-15.77-82.4-42.97-133.6c-3.71-6.99-9.42-12.61-16.3-16.15
				c-33.37-17.15-147.67-65.71-372.03-65.71s-338.65,48.56-372.03,65.71c-6.88,3.54-12.59,9.16-16.3,16.15
				c-27.2,51.2-39.01,109.7-42.97,133.6c-0.78,4.68,3.74,8.37,7.95,6.52c121.99-53.74,423.34-54.91,423.34-54.91
				s301.35,1.17,423.34,54.91C1610.99,483.83,1615.51,480.14,1614.73,475.46z"/>
			<path class="st5" d="M1614.73,475.46c-3.96-23.9-15.77-82.4-42.97-133.6c-3.71-6.99-9.42-12.61-16.3-16.15
				c-4.5-2.31-10.5-5.21-18.02-8.47c23.19,45.42,33.4,96.08,36.88,117.13c0.7,4.25-3.39,7.59-7.21,5.91
				c-110.56-48.71-383.68-49.76-383.68-49.76s-273.12,1.06-383.68,49.76c-3.82,1.68-7.91-1.66-7.21-5.91
				c3.49-21.05,13.69-71.7,36.88-117.13c-7.52,3.26-13.52,6.15-18.02,8.47c-6.88,3.54-12.59,9.16-16.3,16.15
				c-27.2,51.2-39.01,109.7-42.97,133.6c-0.78,4.68,3.74,8.37,7.95,6.52c121.99-53.74,423.34-54.91,423.34-54.91
				s301.35,1.17,423.34,54.91C1610.99,483.83,1615.51,480.14,1614.73,475.46z"/>
			<g>
				<path class="st6" d="M1508.99,524.92c0,22.33-8.22,44.91-21.89,64.04h53.54c3.2-10.57,4.94-21.43,4.94-32.23
					c0-46.27-31.73-93.55-75.32-115.08C1493.75,463.63,1508.99,494.52,1508.99,524.92z"/>
				<path class="st6" d="M879.65,588.96c-13.78-19.01-22.04-41.5-21.76-64.04c-0.38-30.49,14.87-60.92,38.28-82.71
					c-43.33,21.67-75.45,68.03-74.86,114.53c-0.14,10.85,1.52,21.7,4.67,32.23H879.65z"/>
			</g>
			<path class="st2" d="M1389.87,588.96c2.68-6.84,4.38-14.43,4.88-22.45c-4.02,2.41-8.72,3.79-13.75,3.79
				c-14.81,0-26.82-12.01-26.82-26.82c0-14.35,11.27-26.07,25.45-26.79c-8.37-9.9-19.51-15.94-31.74-15.94
				c-25.98,0-47.04,27.23-47.04,60.82c0,9.86,1.82,19.16,5.04,27.39H1389.87z"/>
			<path class="st2" d="M1060.99,588.96c2.68-6.84,4.38-14.43,4.88-22.45c-4.02,2.41-8.72,3.79-13.75,3.79
				c-14.81,0-26.82-12.01-26.82-26.82c0-14.35,11.27-26.07,25.45-26.79c-8.37-9.9-19.51-15.94-31.74-15.94
				c-25.98,0-47.04,27.23-47.04,60.82c0,9.86,1.82,19.16,5.04,27.39H1060.99z"/>
		</g>
		<g>
			<path class="st2" d="M449.49,1171c-0.13,5.12-5.52,9.74-17.32,12.94c-90.26,17.24-169.4-72.97-196.65-162.52
				c-4.22-12.8-8.48-28.8-11.64-45.57c-14.79,3.49-30.7,5.42-46.7,6c-7.73,32.78-17.14,63.57-27.66,90.31
				c-28.3,74.18-63.64,122.02-80.73,115.54c-10.01-3.64-6.95-34.29,0.1-93.06c3.72-33.82,8.73-77.54,11.27-130.41
				c-19.93-10.01-29.54-21.07-27.54-29.51c1.19-5.15,8.9-8.02,22.59-10.3c2.04-0.29,4.22-0.59,6.29-0.88
				c0.52-28.2,0.27-58.44-1.4-91.16c-4.36-97.31-21.18-195.08,22.88-211.59c37.01-8.68,58.37,12.35,75.72,53.65
				c21.73,59.56,23.84,140.17,14.21,219.05c7.86-4.04,15.62-8.45,23.1-13.76c29.22-19.19,57.39-50.16,77.95-91.69
				c16.76-35.43,26.06-73.89,34.35-104.43c8.87-30.38,18.35-53.7,41.68-58.76c37.35-4.01,57.37,17.68,65.71,62.62
				c13.07,68.87-34.59,176.63-102.64,232.74c6.87,19.85,10.42,42.74,15.13,65.15c7.74,43.01,21.17,89.73,43.13,119.66
				c10.82,15.33,24.61,27.85,36.82,37.91C440.17,1153.06,449.72,1161.48,449.49,1171z M94.48,970.56c-0.95-0.37-1.8-0.77-2.72-1.16
				c-7.12,52.48-12.81,105.7-17.37,158.21C82.54,1075.2,89.2,1023.02,94.48,970.56z M98.8,921.01c0.08-0.02,0.15-0.02,0.23-0.03
				c0.11-1.37,0.26-2.7,0.37-4.06C99.18,918.27,99.01,919.64,98.8,921.01z M157.38,668.45c9.32,39.21,16.94,79.04,18.98,119.37
				c3.01,38.18,0.82,76.38-3.12,114.55c0.4-0.16,0.79-0.31,1.19-0.47c10.5-37.22,13.52-76.09,11.57-114.44
				C182.8,746.6,174.51,705.96,157.38,668.45z M190.99,907.91c12.28-5.25,24.07-11.48,35.42-18.54c0.74-1.64,1.35-3.4,2.22-4.89
				c-11.96,7.16-24.28,13.6-37.01,19.24C191.42,905.11,191.18,906.49,190.99,907.91z M269.53,855.96c-4.1,3.33-8.34,6.42-12.56,9.55
				c0.69-0.11,1.38-0.19,2.09-0.27C262.58,862.19,266.17,859.23,269.53,855.96z M405.13,1177c-27.32-3.54-54.93-15.54-76.24-34.34
				c-21.86-18.22-37.54-41.82-49.4-66.08C296.27,1127.89,348.72,1176.61,405.13,1177z M319.79,930.27
				c-1.83,1.29-3.67,2.58-5.52,3.77c3.48,13.44,6.86,26.61,9.69,39.34c6.37,23.02,10.54,45.19,18.16,66.03
				c-0.11-23.42-3.43-44.69-8.63-67.53C329.8,958.47,325.46,944.53,319.79,930.27z M329.53,898.67
				c35.64-23.66,61.88-60.4,77.21-99.6c14.55-39.68,18.77-82.53,9.38-121.93c1.42,39.31-3.3,80.15-18.35,118.27
				C383.8,834.13,359.63,869.22,329.53,898.67z"/>
			<path class="st2" d="M790.45,1075.9c3.7,2.33,4.64,8.68,1.48,19.25c-26.56,78.28-124.78,105.31-197.73,106.02
				c-29.15,0.27-59.13-0.08-85.53-14.21c-45.62-24.41-36.4-74.97-36.83-118.43c-0.55-55.14-0.47-110.29-0.19-165.44
				c-3.57-1.63-14.65-7.21-21.12-20.14c-4.43-8.85-4.67-17.05-4.48-21.22c5.3-23.54,16.53-38.44,31.49-48.1
				c3.36-16.39,3.96-28.56,19.43-33.93c26.53-5.88,30.55,0.53,45.67,14.96c3.83-0.21,7.69-0.4,11.54-0.63
				c42.92-1.66,95.56-8.56,141.49-18.01c9.64-1.83,18.85-3.65,27.66-5.3c7.5-7.82,17.03-11.57,29.02-9.34
				c3.43,1.17,6.21,2.67,9.16,4.1c13.96-0.68,24.5,1.11,29.44,7.86c2.72,3.75,1.71,10-3.16,18.22c1.67,15.6,3.25,38.44,1.92,65.91
				c-3.16,64.78-6.47,125.23-48.02,160.35c-43.79,37.03-114.41,32.52-149.57,30.28c-8.24-0.53-15.04-1.3-19.66-1.92
				c-3.7,21.46-7.53,36.24-12.33,50.61c7.82,1.16,15.92,2.42,24.53,3.78c41.19,6.21,89.07,9.11,125.87-1.26
				C748.03,1091.03,776.75,1067.61,790.45,1075.9z M505.64,1096.46c1.01-0.31,1.96-0.72,3.01-0.98
				c-0.72-34.35-1.45-68.67-2.08-103.12c-2.32,24.77-2.53,50.03-2.22,75.48C504.65,1077.35,505.13,1086.89,505.64,1096.46z
				 M537.44,816.55c0.5-0.05,1.01-0.11,1.53-0.16c-1.3-2.09-2.35-4.28-3.75-6.34C535.97,812.2,536.68,814.39,537.44,816.55z
				 M552.44,805.81c1.88,2.64,3.65,5.46,5.33,8.4c16.66-1.77,33.21-3.24,49.94-6.02C588.31,804.95,570.37,804.81,552.44,805.81z
				 M631.92,1121.05c-21.33-6.7-41.9-10.01-63.55-12.73c-3.88-0.31-7.82-0.58-11.77-0.85c-0.85,2.53-1.71,4.99-2.59,7.42
				c4.28,0.5,8.68,0.98,12.89,1.51C589.1,1118.24,610.47,1121.1,631.92,1121.05z M560.51,912.79c2.45,21.27,2.72,42.71,2.25,64.2
				c0.32,0.02,0.68,0.03,1.01,0.05c5.78-21.67,7.16-43.75,5.54-65.63C566.49,911.89,563.56,912.36,560.51,912.79z M630.5,983.05
				c-15.79-1.46-31.65-2.24-47.7-3.45c-0.81-0.05-1.64-0.1-2.46-0.14c-0.06,0.93-0.14,1.83-0.23,2.75
				C596.84,983.35,613.58,983.66,630.5,983.05z M581.01,908.98c1.48,22.42,1.22,41.24-0.26,64.05c10.25,1.38,25.15,2.35,42.69-0.29
				c6.86-1.05,29.14-4.39,44.51-14.26c38.25-24.55,33.6-89.41,33.19-94.12C670.76,881.69,631.39,898.35,581.01,908.98z
				 M632.42,876.56c23.7-3.46,47.05-11.4,68.75-22.62c0.03-1.37,0.08-2.74,0.13-4.11C679.53,861.34,656.43,870.41,632.42,876.56z
				 M695.02,1032.4c18.45-5.75,35.82-15.04,50.02-29.12c-0.66,0.32-1.24,0.82-1.95,1.03c-0.47-0.03-0.92-0.24-1.37-0.32
				c-15.15,8.95-31.15,16.73-48.25,21.33c-19.62,6.15-40.33,7.86-61.06,7.82C653.18,1039.12,674.87,1037.8,695.02,1032.4z
				 M774.48,1113.55c-14.71,20.17-34.92,37.3-57.89,48.41c-22.75,11.51-47.67,17.42-72.41,19.93
				C693.38,1182.61,749.22,1157.35,774.48,1113.55z M718.85,951.61c0.95-0.19,1.87-0.35,2.8-0.53c-0.66-2.87-1.59-5.65-2.11-8.55
				c-3.2-16.18-4.12-32.76-3.94-49.36C712.81,912.34,714.08,932.45,718.85,951.61z M779.87,802.62c-0.55,0.68-1.21,1.38-1.8,2.06
				c-0.72,13.52-1.09,26.79-2.59,39.44c-0.89,15.63-3.77,30.59-5.47,46.01c7.61-14.81,10.88-29.38,12.57-44.62
				C783.41,832.05,782.98,818.06,779.87,802.62z"/>
			<path class="st2" d="M1194.67,819.76c15.71,24.11,18.85,61.99,17.47,111.29c-4.19,50.18-8.92,247.34-50.52,259.47
				c-37.81-8.95-60.54-171.33-67.5-250.31c-1.77-19.59-2.59-39.46-2-58.08c-29.44,13.09-64.39,25.13-105.72,34.08
				c-6.28,72.55-31.1,152.4-51.14,190.38c-25.76,53.43-55.76,87.43-73.08,81.13c-9.96-3.53-9.76-26.82-5.62-70.64
				c3.94-43.79,11.67-108.55,11-194.33c0-0.06,0-0.13,0-0.19c-32.16-5.31-57.82-18.96-59.69-48.21
				c4.01-32.89,25.35-51.35,56.15-60.62c2.41-0.52,5.09-0.87,7.57-1.34c4.93-23.13,14.96-39.44,35.06-43.38
				c30.51-2.06,50.74,10.11,63.44,30.97c51.29-4.8,104.67-9.47,150.85-21.44c52.46-10.38,95.3-20.67,105.72-4.97
				C1231.39,780.76,1221.73,796.97,1194.67,819.76z M868.64,832.3c0.1-0.95,0.23-1.83,0.32-2.77c-4.36,1.27-8.68,2.46-13.14,3.98
				C860.18,833.24,864.34,832.67,868.64,832.3z M884.2,986.72c-6.12,24.87-10.22,50.56-13.88,76.51
				c-3.22,26.16-5.91,52.54-6.66,79.2C870.42,1090.37,877.23,1038.71,884.2,986.72z M956.93,813.47c0.53,2.88,1.05,5.78,1.55,8.66
				c0.97-0.11,1.95-0.23,2.91-0.34c-1.05-2.8-2.11-5.6-3.3-8.37C957.71,813.45,957.32,813.45,956.93,813.47z M974.4,918.78
				c-2.83,0.53-5.76,1.05-8.87,1.54c-1.09,22.3-4.44,44.43-8.32,66.52C967.24,965.11,972.39,942.06,974.4,918.78z M979.1,819.68
				c12.85-1.54,25.69-3.19,38.62-5.46c-14.17-1.59-27.83-2-41.31-1.67C977.36,814.87,978.26,817.24,979.1,819.68L979.1,819.68z
				 M1093.06,866.26c-16.1,6.39-32.58,11.86-49.44,16.1c16.58-2.54,33.05-6.95,49.15-12.67
				C1092.85,868.54,1092.94,867.41,1093.06,866.26z M1143.49,1151.37c-14.86-48.7-23.07-99.02-25.08-149.92
				C1115.19,1051.8,1124.09,1104.57,1143.49,1151.37z M1184.16,832.87c2.78,26.88,6.31,53.27,6.83,79.36
				c1.67,26.26,0.16,52.12-0.5,78.36c8.56-26.01,10.66-51.93,10.14-78.04C1198.95,886.38,1194.88,859.98,1184.16,832.87z
				 M1188.86,812.13c0.13,0.13,0.24,0.26,0.37,0.4c1.77-1.59,3.65-3.07,5.36-4.7C1192.7,809.32,1190.76,810.69,1188.86,812.13z"/>
			<path class="st2" d="M1605.14,931.36c16.87,12.62,22.28,30.2,24.58,37.49c6.04,19.46,3.01,38.88-1.59,58.93
				c-6.23,25.8-10.42,53.03-9.71,81.41c0.18,30.78,3.25,61.29-11.69,72.59c-3.93,2.95-9.75,3.03-17.21-0.34
				c-19.98,8.55-53.86,20.43-96.81,22.1c-86.99,3.38-191.81-35.9-208.84-97.88c-3.12-11.35-6.18-33.97,3.4-40.07
				c7.78-4.94,18.58,4.36,40.31,14.79c40.33,19.35,77.71,23.04,99.95,25.27c15.63,1.56,32.5,2.14,50.56,1.22
				c16.65-0.69,32.97-2.83,48.18-4.6c-4.43-11.57-8.92-26.06-11.85-43.06c-2.61-15.02-3.4-28.53-3.36-39.88
				c-6.58,3.25-18.88,9-34.92,14.28c-86.7,28.61-175.58,8.64-193.05-20.43c-7.89-13.12-6.38-25.21-6.38-25.21
				c1.21-9.66,6.5-16.53,9.45-19.82c-0.39-17.23-0.77-34.47-1.16-51.69c0.03,1.56-24.55-6.78-26.06-7.65
				c-11.33-6.49-23.2-20.54-21.39-34.56c4.19-32.53,25.27-51.27,55.33-60.54c72.54-15.7,170.94-14.49,249.04-35.21
				c51.06-10.33,92.95-20.59,103.57-5.04c5.62,8.34-7.5,28.7-44.54,57.63c-37.06,28.06-99.05,66.53-195.99,86.78
				c-4.62,0.93-9.8,1.83-15.21,2.69c-0.08,10.17-1.24,20.57-3.33,30.75c95.61-4.81,135.35-14.75,152.77-23.92
				c3.46-1.83,16.19-8.98,32.87-8.23C1588.11,919.91,1600.09,927.57,1605.14,931.36L1605.14,931.36z M1364.54,824.79
				c25.92-3.82,51.53-5.96,77.4-10.59c-27.17-3.17-52.33-1.69-77.88,0.95c-25.5,4.09-51.32,8.64-79.3,18.38
				C1312.3,831.74,1338.69,827.75,1364.54,824.79z M1299.17,959.51c-0.35-4.3-0.71-8.61-1.06-12.91c-0.95,4.75-1.3,9.51-1.38,14.29
				C1297.54,960.44,1298.3,959.93,1299.17,959.51z M1426.95,1120.7c-19.67-6.47-39.86-11.88-59.82-19.06
				c-20.35-6.46-40.55-14.1-61.38-21.62C1344.69,1098.9,1384.9,1112.41,1426.95,1120.7z M1376.76,922.44
				c-2.16,0.27-4.25,0.56-6.47,0.8c0.21,5.62,0.13,11.28-0.11,16.93C1373.75,934.32,1375.66,928.38,1376.76,922.44z M1427.34,968.3
				c-13.51-4.7-28.41-7.12-42.98-8.11c-0.56,2.16-1.21,4.23-1.85,6.34C1397.61,966.66,1413.06,967.77,1427.34,968.3z
				 M1576.08,1172.94c-0.35-0.29-0.74-0.68-1.09-0.97c-22.54,8.56-46.17,15.29-70.59,16.93c-26.95,2.87-54.25-0.26-80.89-6.18
				c25.18,12.51,53.69,16.32,81.18,14.39C1529.98,1194.57,1554.63,1186.8,1576.08,1172.94z M1511.71,1003.2
				c-23.23,13.09-51.37,19.06-76.18,19.22c23.87,2.46,52.66-2.91,76-15.97C1511.6,1005.37,1511.61,1004.26,1511.71,1003.2z
				 M1468.07,882.19c54.28-8.63,107.61-36.19,146.68-74.6C1571.98,842.48,1521.85,868.25,1468.07,882.19z M1537.18,1101.13
				c1.08-0.11,2.14-0.21,3.2-0.31c-4.06-11.9-6.86-24.28-7.89-36.96C1531.7,1076.37,1533.63,1088.99,1537.18,1101.13z
				 M1615.83,966.24c-3.36,17.06-4.39,33.1-6.7,47.18c-1.18,14.49-3.99,27.38-4.77,41.16c8.71-13.62,11.99-24.95,14.04-38.44
				C1619.42,1002.41,1619.48,986.97,1615.83,966.24z"/>
			<path class="st2" d="M2018.68,827.6c22.54,24.85,22.41,66.68,16,122.94c-8.24,68.4-18.54,144.74-14.25,209.19
				c0.52,15.76,1.09,28.43-5.63,34.95c-3.69,3.54-11.19,2.93-21.8-4.04c-10.42-6.92-23.84-20.61-35.38-41.52
				c-23.84-41.81-40.79-109.76-41.28-198.47c-0.48-22.68,0.85-45.53,4.2-66.2c-30.18,13.01-65.66,24.95-107.86,33.52
				c-4.46,0.9-9.48,1.75-14.71,2.58c-8.66,55.43-22.75,108.69-39.62,151.63c-28.3,74.18-63.64,122.02-80.73,115.54
				c-10.01-3.64-6.95-34.29,0.1-93.06c4.7-42.79,11.54-101.11,12.69-174.33c-26.85-6.52-47.12-20.15-48.78-45.99
				c3.57-29.31,20.96-47.1,46.49-57.21c-5.18-92.06-18.09-180.7,23.66-196.35c37.01-8.68,58.37,12.35,75.72,53.65
				c13.04,35.77,18.93,79.2,19.56,125.23c50.29-4.68,102.4-9.42,147.62-21.14c52.46-10.38,95.3-20.67,105.71-4.97
				C2065.65,781.56,2053.07,800.7,2018.68,827.6z M1707.59,923.53c-0.13-0.02-0.24-0.03-0.35-0.05
				c-10.29,67.13-18.16,136.21-24.03,204.12C1693.78,1059.58,1701.82,991.95,1707.59,923.53z M1785.76,801.7
				c3.08-0.31,6.13-0.63,9.24-0.92c-0.1-4.44,0.02-8.9-0.21-13.33c-3.19-40.84-11.48-81.49-28.62-119.03
				c9.32,39.21,16.93,79.04,18.98,119.37C1785.52,792.43,1785.57,797.07,1785.76,801.7z M1795.21,813.28
				c-2.96,0.18-5.92,0.37-8.89,0.6c0.06,2.99,0.11,6,0.13,9.01c2.88-0.35,5.76-0.74,8.63-1.08
				C1795.16,818.96,1795.21,816.11,1795.21,813.28z M1851.44,814.23c-15.23-1.72-29.88-2-44.33-1.53c-0.02,2.56,0.02,5.1-0.03,7.68
				C1821.87,818.64,1836.63,816.84,1851.44,814.23z M1923.88,867.45c-15.16,5.88-30.68,10.95-46.52,14.92
				c15.39-2.37,30.7-6.31,45.69-11.41C1923.32,869.75,1923.61,868.61,1923.88,867.45z M1979.61,1165.58
				c-30.91-44.62-40.86-98.7-42.18-151.35C1933.27,1066.11,1944.79,1124.23,1979.61,1165.58z M2016.57,853.51
				c-0.5,26.38,0.1,52.19-1.54,77.29c-0.5,25.34-3.65,49.92-5.15,74.76c9.38-24.31,13.1-48.57,14.73-73.57
				C2025.07,906.84,2023.93,881.13,2016.57,853.51z M2028.34,807.84c-5.6,4.43-11.32,8.69-17.14,12.81c0.45,0.35,0.9,0.69,1.34,1.05
				C2017.99,817.27,2023.27,812.63,2028.34,807.84z"/>
			<path class="st2" d="M2455.52,819.76c15.71,24.11,18.85,61.99,17.47,111.29c-4.19,50.18-8.92,247.34-50.52,259.47
				c-9.11-2.16-17.31-13.33-24.65-29.94c-13.44,8.98-28.41,16.74-44.59,22.73c-55.33,22.38-153.45,25.4-211.46-0.4
				c-7.08,4.88-13.51,6.71-18.74,4.81c-5.07-1.79-7.49-8.76-8.11-20.9c-16.32-14.79-19.49-33.52-5.15-50.4
				c2.64-3.46,5.52-6.39,8.55-9c4.09-43.45,10.72-104.85,10.08-184.68c0-0.06,0-0.13,0-0.19c-32.16-5.31-57.82-18.96-59.69-48.21
				c4.01-32.89,25.35-51.35,56.15-60.62c2.43-0.52,5.1-0.87,7.57-1.34c4.91-23.13,14.95-39.44,35.06-43.38
				c30.51-2.06,50.74,10.11,63.44,30.97c51.29-4.8,104.67-9.47,150.85-21.44c52.46-10.38,95.3-20.67,105.71-4.97
				C2492.22,780.76,2482.58,796.97,2455.52,819.76z M2129.47,832.3c0.1-0.95,0.24-1.83,0.34-2.77c-4.36,1.27-8.68,2.46-13.14,3.98
				C2121.02,833.24,2125.17,832.67,2129.47,832.3z M2145.04,986.72c-6.12,24.87-10.22,50.56-13.88,76.51
				c-1.53,12.62-2.95,25.31-4.09,38.04c1.01-0.56,2.03-1.11,3.07-1.61C2135.07,1062.01,2139.98,1024.42,2145.04,986.72z
				 M2287.7,1121.09c-22.2-6.75-43.72-10.09-66.23-12.85c-8.32-0.66-16.81-1.19-25.4-1.58c-1.08,2.24-2.17,4.38-3.27,6.55
				c9.18,1.03,18.34,2,27.25,3.11C2243.09,1118.17,2265.34,1121.09,2287.7,1121.09z M2201.66,1095.15
				c11.35,1.43,23.52,3.32,36.67,5.34c43.03,6.36,93.32,9.21,131.84-1.06c2.87-0.6,5.54-1.42,8.29-2.17
				c-12.01-52.79-19.9-116.1-23.5-157.07c-1.77-19.59-2.59-39.46-2-58.08c-29.46,13.09-64.41,25.13-105.72,34.08
				C2241.55,982.18,2220.51,1054.1,2201.66,1095.15z M2217.79,813.47c0.55,2.88,1.05,5.78,1.54,8.66c0.97-0.11,1.93-0.23,2.91-0.34
				c-1.05-2.8-2.11-5.6-3.3-8.37C2218.56,813.45,2218.17,813.45,2217.79,813.47z M2226.38,920.33c-1.11,22.3-4.44,44.43-8.34,66.52
				c10.03-21.73,15.2-44.78,17.21-68.06C2232.4,919.31,2229.47,919.83,2226.38,920.33z M2237.25,812.55
				c0.95,2.32,1.87,4.68,2.69,7.13c12.85-1.54,25.69-3.19,38.6-5.46C2264.37,812.63,2250.72,812.23,2237.25,812.55z
				 M2395.14,1154.04c-0.35-0.88-0.69-1.8-1.03-2.72c-28.09,17.87-61.53,27.99-94.16,30.62
				C2332.08,1182.45,2366.95,1172.62,2395.14,1154.04z M2304.46,882.37c16.58-2.54,33.05-6.95,49.15-12.67
				c0.08-1.16,0.18-2.29,0.27-3.43C2337.78,872.65,2321.31,878.12,2304.46,882.37z M2386.7,1094.91c1.21-0.39,2.37-0.82,3.56-1.24
				c-5.96-30.39-9.79-61.17-11.01-92.22C2377.28,1032.34,2379.91,1064.13,2386.7,1094.91z M2403.38,1147.95
				c-0.26-0.87-0.44-1.74-0.69-2.61c-0.18,0.13-0.35,0.24-0.53,0.37c0.32,0.82,0.61,1.64,0.95,2.46
				C2403.2,1148.1,2403.3,1148.03,2403.38,1147.95z M2444.99,832.87c2.79,26.88,6.31,53.27,6.83,79.36
				c1.69,26.26,0.18,52.12-0.48,78.36c8.56-26.01,10.66-51.93,10.14-78.04C2459.8,886.38,2455.71,859.98,2444.99,832.87z
				 M2449.69,812.12c0.13,0.14,0.26,0.27,0.37,0.42c1.77-1.59,3.65-3.07,5.36-4.7C2453.54,809.32,2451.59,810.69,2449.69,812.12z"/>
		</g>
	</g>
</g>
<g id="custom_x5F_o" class="st0">
	<g class="st7">
		<g>
			<ellipse class="st4" cx="2236.98" cy="1068.88" rx="182.8" ry="183.9"/>
			<g>
				<path class="st8" d="M467.39,1250.83c-0.12,4.88-5.24,9.29-16.43,12.35c-85.63,16.45-160.71-69.65-186.57-155.12
					c-4-12.21-8.05-27.49-11.04-43.5c-14.03,3.33-29.12,5.18-44.31,5.73c-7.33,31.28-16.26,60.67-26.24,86.19
					c-26.85,70.8-60.37,116.46-76.59,110.27c-9.5-3.48-6.6-32.73,0.09-88.82c3.53-32.28,8.28-74.01,10.69-124.47
					c-18.91-9.56-28.02-20.11-26.13-28.17c1.13-4.92,8.45-7.65,21.43-9.83c1.94-0.28,4-0.57,5.97-0.85
					c0.49-26.92,0.26-55.77-1.33-87.01c-4.14-92.88-20.1-186.19,21.7-201.95c35.11-8.28,55.38,11.79,71.84,51.21
					c20.62,56.85,22.62,133.78,13.48,209.06c7.45-3.86,14.82-8.07,21.92-13.14c27.72-18.32,54.45-47.88,73.95-87.52
					c15.9-33.82,24.73-70.52,32.59-99.67c8.41-28.99,17.41-51.25,39.54-56.08c35.43-3.83,54.43,16.87,62.34,59.77
					c12.4,65.73-32.82,168.58-97.38,222.14c6.52,18.94,9.88,40.79,14.35,62.18c7.35,41.05,20.09,85.64,40.92,114.2
					c10.26,14.63,23.35,26.58,34.93,36.18C458.55,1233.72,467.61,1241.75,467.39,1250.83z M130.59,1059.53
					c-0.9-0.35-1.71-0.73-2.58-1.11c-6.75,50.09-12.16,100.88-16.48,151C119.25,1159.4,125.58,1109.6,130.59,1059.53z
					 M134.68,1012.24c0.08-0.02,0.14-0.02,0.21-0.03c0.11-1.3,0.25-2.58,0.35-3.87C135.04,1009.63,134.88,1010.93,134.68,1012.24z
					 M190.26,771.19c8.84,37.43,16.07,75.44,18,113.93c2.86,36.44,0.78,72.9-2.96,109.33c0.38-0.15,0.75-0.29,1.13-0.45
					c9.96-35.52,12.83-72.63,10.98-109.22C214.37,845.78,206.51,806.99,190.26,771.19z M222.14,999.73
					c11.65-5.01,22.83-10.95,33.6-17.7c0.7-1.57,1.28-3.24,2.11-4.67c-11.35,6.84-23.03,12.98-35.11,18.36
					C222.56,997.06,222.33,998.38,222.14,999.73z M296.66,950.15c-3.89,3.18-7.91,6.13-11.91,9.11c0.66-0.11,1.31-0.18,1.99-0.26
					C290.06,956.1,293.47,953.27,296.66,950.15z M425.3,1256.56c-25.92-3.38-52.11-14.82-72.33-32.77
					c-20.74-17.39-35.62-39.92-46.87-63.07C322.03,1209.69,371.79,1256.19,425.3,1256.56z M344.34,1021.07
					c-1.74,1.23-3.48,2.46-5.24,3.6c3.3,12.83,6.51,25.4,9.2,37.55c6.05,21.97,10,43.12,17.23,63.02
					c-0.11-22.36-3.25-42.65-8.19-64.45C353.84,1047.99,349.72,1034.69,344.34,1021.07z M353.58,990.91
					c33.81-22.59,58.71-57.65,73.25-95.06c13.81-37.87,17.81-78.77,8.91-116.37c1.34,37.52-3.13,76.5-17.41,112.88
					C405.06,929.32,382.14,962.81,353.58,990.91z"/>
				<path class="st8" d="M790.87,1160.07c3.51,2.23,4.4,8.28,1.4,18.38c-25.2,74.72-118.38,100.52-187.59,101.19
					c-27.66,0.26-56.1-0.08-81.14-13.57c-43.28-23.29-34.53-71.55-34.94-113.04c-0.52-52.62-0.44-105.26-0.18-157.9
					c-3.39-1.55-13.9-6.88-20.04-19.22c-4.2-8.45-4.43-16.27-4.24-20.25c5.03-22.46,15.69-36.69,29.87-45.91
					c3.19-15.64,3.76-27.26,18.43-32.39c25.17-5.61,28.99,0.51,43.33,14.27c3.63-0.2,7.3-0.38,10.95-0.6
					c40.71-1.58,90.66-8.17,134.23-17.19c9.15-1.75,17.88-3.49,26.24-5.06c7.12-7.47,16.16-11.05,27.54-8.91
					c3.25,1.12,5.9,2.55,8.69,3.92c13.24-0.64,23.24,1.06,27.93,7.5c2.58,3.58,1.62,9.54-2.99,17.39
					c1.59,14.89,3.08,36.69,1.82,62.9c-2.99,61.83-6.14,119.52-45.56,153.05c-41.54,35.34-108.54,31.03-141.9,28.9
					c-7.82-0.51-14.27-1.24-18.65-1.83c-3.51,20.48-7.15,34.58-11.7,48.31c7.42,1.11,15.11,2.31,23.28,3.61
					c39.08,5.93,84.5,8.7,119.42-1.2C750.63,1174.51,777.87,1152.16,790.87,1160.07z M520.67,1179.69c0.96-0.29,1.86-0.69,2.86-0.94
					c-0.69-32.79-1.38-65.54-1.97-98.43c-2.2,23.65-2.4,47.76-2.11,72.05C519.72,1161.45,520.18,1170.56,520.67,1179.69z
					 M550.83,912.53c0.47-0.05,0.96-0.11,1.45-0.15c-1.24-2-2.23-4.09-3.56-6.05C549.44,908.38,550.11,910.47,550.83,912.53z
					 M565.07,902.28c1.79,2.52,3.47,5.21,5.06,8.02c15.81-1.69,31.51-3.09,47.38-5.75C599.09,901.47,582.08,901.33,565.07,902.28z
					 M640.47,1203.17c-20.24-6.39-39.75-9.56-60.29-12.15c-3.68-0.29-7.42-0.55-11.17-0.81c-0.81,2.41-1.62,4.77-2.46,7.08
					c4.06,0.48,8.23,0.94,12.23,1.45C599.84,1200.48,620.12,1203.21,640.47,1203.17z M572.72,1004.4
					c2.32,20.3,2.58,40.76,2.14,61.28c0.31,0.01,0.64,0.03,0.96,0.04c5.48-20.68,6.8-41.76,5.25-62.64
					C578.4,1003.54,575.62,1003.98,572.72,1004.4z M639.12,1071.45c-14.98-1.4-30.03-2.14-45.25-3.29
					c-0.76-0.05-1.56-0.09-2.34-0.14c-0.06,0.89-0.14,1.75-0.21,2.62C607.19,1071.74,623.07,1072.03,639.12,1071.45z
					 M592.17,1000.76c1.4,21.4,1.16,39.36-0.24,61.13c9.73,1.32,23.86,2.25,40.5-0.27c6.51-1,27.64-4.2,42.23-13.61
					c36.29-23.43,31.87-85.34,31.49-89.84C677.32,974.71,639.96,990.61,592.17,1000.76z M640.94,969.81
					c22.48-3.3,44.64-10.88,65.23-21.59c0.03-1.31,0.07-2.61,0.12-3.92C685.64,955.29,663.73,963.94,640.94,969.81z M700.33,1118.56
					c17.5-5.48,33.98-14.35,47.45-27.8c-0.63,0.31-1.18,0.78-1.85,0.98c-0.44-0.03-0.87-0.23-1.3-0.31
					c-14.37,8.54-29.55,15.96-45.77,20.36c-18.62,5.87-38.26,7.49-57.93,7.46C660.64,1124.96,681.21,1123.7,700.33,1118.56z
					 M775.72,1196.01c-13.96,19.25-33.13,35.6-54.92,46.2c-21.58,10.98-45.22,16.62-68.7,19.02
					C698.78,1261.92,751.76,1237.81,775.72,1196.01z M722.94,1041.44c0.9-0.18,1.77-0.34,2.66-0.51c-0.63-2.73-1.51-5.39-2-8.16
					c-3.04-15.44-3.91-31.27-3.74-47.11C717.21,1003.97,718.42,1023.16,722.94,1041.44z M780.84,899.24
					c-0.52,0.64-1.15,1.32-1.71,1.97c-0.69,12.91-1.04,25.57-2.46,37.64c-0.84,14.92-3.57,29.19-5.19,43.91
					c7.22-14.14,10.32-28.04,11.93-42.59C784.2,927.33,783.79,913.98,780.84,899.24z"/>
				<path class="st8" d="M1174.37,915.61c14.91,23.02,17.88,59.17,16.57,106.21c-3.97,47.89-8.46,236.08-47.92,247.65
					c-35.88-8.54-57.44-163.52-64.04-238.9c-1.68-18.7-2.46-37.66-1.89-55.43c-27.94,12.49-61.09,23.98-100.3,32.53
					c-5.95,69.25-29.51,145.46-48.52,181.7c-24.44,50.99-52.9,83.44-69.34,77.44c-9.45-3.37-9.26-25.6-5.33-67.42
					c3.74-41.79,11.07-103.6,10.43-185.48c0-0.06,0-0.12,0-0.19c-30.52-5.07-54.86-18.1-56.63-46.02
					c3.8-31.39,24.06-49.01,53.27-57.86c2.29-0.49,4.83-0.83,7.18-1.27c4.67-22.08,14.19-37.64,33.26-41.41
					c28.94-1.97,48.14,9.65,60.19,29.56c48.66-4.58,99.3-9.03,143.12-20.46c49.78-9.91,90.41-19.73,100.3-4.75
					C1209.2,878.38,1200.04,893.85,1174.37,915.61z M865.05,927.58c0.09-0.91,0.21-1.75,0.31-2.64c-4.14,1.21-8.23,2.35-12.46,3.8
					C857.03,928.47,860.97,927.93,865.05,927.58z M879.82,1074.95c-5.8,23.74-9.7,48.26-13.16,73.03
					c-3.06,24.97-5.6,50.15-6.32,75.59C866.75,1173.88,873.21,1124.58,879.82,1074.95z M948.82,909.6c0.5,2.75,0.99,5.52,1.47,8.27
					c0.91-0.11,1.85-0.22,2.76-0.32c-0.99-2.67-2-5.35-3.13-7.99C949.55,909.58,949.19,909.58,948.82,909.6z M965.39,1010.11
					c-2.69,0.51-5.47,1-8.41,1.48c-1.04,21.28-4.22,42.41-7.9,63.49C958.59,1054.33,963.48,1032.33,965.39,1010.11z M1006.49,910.32
					c-13.44-1.52-26.41-1.9-39.19-1.6c0.9,2.21,1.76,4.47,2.55,6.81C982.04,914.05,994.23,912.49,1006.49,910.32z M1077.97,959.98
					c-15.27,6.1-30.91,11.32-46.9,15.37c15.73-2.43,31.35-6.64,46.63-12.09C1077.77,962.16,1077.86,961.08,1077.97,959.98z
					 M1125.82,1232.1c-14.1-46.48-21.89-94.5-23.79-143.09C1098.96,1137.07,1107.41,1187.43,1125.82,1232.1z M1164.39,928.11
					c2.64,25.66,5.99,50.84,6.47,75.74c1.59,25.06,0.15,49.75-0.47,74.8c8.13-24.83,10.11-49.57,9.62-74.49
					C1178.43,979.18,1174.57,953.99,1164.39,928.11z M1168.85,908.32c0.12,0.12,0.23,0.25,0.35,0.38c1.68-1.52,3.47-2.94,5.08-4.49
					C1172.5,905.63,1170.65,906.94,1168.85,908.32z"/>
				<path class="st8" d="M1587.12,1057.9c5.73,18.58,2.85,37.1-1.51,56.25c-5.91,24.63-9.88,50.61-9.21,77.7
					c0.17,29.37,3.09,58.49-11.09,69.28c-3.73,2.81-9.26,2.89-16.33-0.32c-18.95,8.16-51.1,19.49-91.85,21.09
					c-82.53,3.23-181.98-34.26-198.13-93.41c-2.96-10.83-5.86-32.42,3.22-38.24c7.38-4.72,17.63,4.17,38.25,14.12
					c38.26,18.47,73.72,21.98,94.83,24.12c14.83,1.49,30.83,2.04,47.97,1.17c15.79-0.66,31.28-2.71,45.71-4.4
					c-4.2-11.04-8.46-24.87-11.24-41.1c-2.47-14.33-3.22-27.23-3.19-38.06c-6.25,3.1-17.91,8.59-33.13,13.63
					c-82.26,27.3-166.58,8.25-183.15-19.49c-7.49-12.52-6.05-24.06-6.05-24.06c1.14-9.22,6.17-15.78,8.96-18.91
					c-0.37-16.44-0.73-32.9-1.1-49.34c0.03,1.49-23.29-6.47-24.73-7.3c-10.75-6.19-22.01-19.61-20.3-32.99
					c3.97-31.05,23.98-48.94,52.49-57.79c68.82-14.98,162.18-13.83,236.27-33.6c48.45-9.86,88.18-19.65,98.26-4.81
					c5.33,7.96-7.12,27.39-42.26,55c-35.16,26.78-93.97,63.5-185.94,82.83c-4.38,0.89-9.3,1.75-14.43,2.56
					c-0.08,9.71-1.18,19.64-3.16,29.35c90.71-4.59,128.41-14.07,144.94-22.83c3.28-1.75,15.36-8.57,31.18-7.85
					c15.23,0.69,26.59,8.01,31.39,11.62C1579.81,1034.16,1584.94,1050.93,1587.12,1057.9z M1335.54,920.4
					c24.59-3.64,48.89-5.68,73.43-10.11c-25.78-3.03-49.65-1.61-73.89,0.91c-24.19,3.9-48.69,8.25-75.24,17.55
					C1285.98,927.04,1311.01,923.23,1335.54,920.4z M1273.51,1048.99c-0.34-4.1-0.68-8.22-1.01-12.32
					c-0.9,4.53-1.24,9.08-1.31,13.64C1271.97,1049.88,1272.69,1049.39,1273.51,1048.99z M1394.75,1202.83
					c-18.66-6.18-37.82-11.34-56.75-18.19c-19.31-6.16-38.47-13.46-58.24-20.64C1316.71,1182.03,1354.86,1194.92,1394.75,1202.83z
					 M1347.13,1013.6c-2.05,0.26-4.03,0.54-6.14,0.77c0.2,5.36,0.12,10.77-0.11,16.16
					C1344.27,1024.94,1346.09,1019.27,1347.13,1013.6z M1395.11,1057.38c-12.81-4.49-26.95-6.79-40.78-7.75
					c-0.54,2.06-1.15,4.04-1.76,6.06C1366.91,1055.81,1381.57,1056.87,1395.11,1057.38z M1536.23,1252.69
					c-0.34-0.28-0.7-0.64-1.04-0.92c-21.38,8.17-43.8,14.59-66.97,16.16c-25.56,2.74-51.47-0.24-76.74-5.9
					c23.88,11.94,50.93,15.58,77.02,13.74C1492.49,1273.34,1515.88,1265.91,1536.23,1252.69z M1475.16,1090.69
					c-22.04,12.49-48.74,18.19-72.27,18.34c22.65,2.35,49.96-2.78,72.1-15.24C1475.05,1092.76,1475.07,1091.7,1475.16,1090.69z
					 M1433.76,975.19c51.5-8.23,102.09-34.54,139.16-71.2C1532.34,937.29,1484.78,961.88,1433.76,975.19z M1499.32,1184.14
					c1.03-0.1,2.03-0.2,3.04-0.29c-3.85-11.36-6.51-23.17-7.48-35.28C1494.13,1160.51,1495.96,1172.56,1499.32,1184.14z
					 M1573.94,1055.41c-3.19,16.29-4.17,31.59-6.35,45.03c-1.11,13.83-3.79,26.13-4.52,39.29c8.26-13,11.38-23.81,13.32-36.69
					C1577.35,1089.93,1577.41,1075.2,1573.94,1055.41z"/>
				<path class="st8" d="M1956.14,923.09c21.38,23.72,21.26,63.64,15.18,117.34c-7.82,65.29-17.59,138.14-13.52,199.66
					c0.49,15.04,1.04,27.14-5.34,33.35c-3.49,3.38-10.61,2.8-20.68-3.85c-9.88-6.61-22.62-19.67-33.57-39.63
					c-22.62-39.9-38.7-104.76-39.16-189.43c-0.46-21.65,0.81-43.45,3.99-63.18c-28.64,12.41-62.3,23.81-102.33,31.99
					c-4.23,0.86-9,1.67-13.96,2.46c-8.22,52.9-21.58,103.74-37.59,144.72c-26.85,70.8-60.37,116.46-76.59,110.27
					c-9.5-3.47-6.6-32.72,0.09-88.82c4.46-40.84,10.95-96.5,12.03-166.38c-25.47-6.22-44.7-19.24-46.27-43.9
					c3.39-27.98,19.89-44.96,44.11-54.6c-4.92-87.87-17.17-172.47,22.45-187.4c35.11-8.28,55.38,11.79,71.84,51.21
					c12.37,34.14,17.96,75.59,18.55,119.52c47.71-4.47,97.15-8.99,140.05-20.17c49.77-9.91,90.42-19.73,100.29-4.75
					C2000.7,879.15,1988.76,897.41,1956.14,923.09z M1660.99,1014.64c-0.12-0.01-0.23-0.03-0.34-0.04
					c-9.76,64.07-17.23,130-22.8,194.82C1647.89,1144.49,1655.53,1079.94,1660.99,1014.64z M1735.16,898.37
					c2.92-0.29,5.82-0.6,8.77-0.88c-0.09-4.24,0.01-8.49-0.2-12.72c-3.02-38.98-10.89-77.78-27.15-113.6
					c8.84,37.43,16.07,75.44,18.01,113.93C1734.93,889.52,1734.98,893.94,1735.16,898.37z M1744.12,909.42
					c-2.81,0.17-5.62,0.35-8.43,0.57c0.06,2.86,0.1,5.73,0.12,8.6c2.73-0.34,5.47-0.71,8.18-1.03
					C1744.08,914.84,1744.12,912.12,1744.12,909.42z M1797.47,910.32c-14.45-1.64-28.34-1.9-42.06-1.46
					c-0.02,2.44,0.01,4.87-0.03,7.33C1769.42,914.53,1783.42,912.81,1797.47,910.32z M1866.2,961.12
					c-14.38,5.61-29.11,10.45-44.14,14.24c14.6-2.26,29.13-6.02,43.34-10.89C1865.67,963.31,1865.94,962.22,1866.2,961.12z
					 M1919.07,1245.67c-29.32-42.59-38.76-94.2-40.01-144.46C1875.1,1150.73,1886.04,1206.19,1919.07,1245.67z M1954.14,947.81
					c-0.47,25.18,0.09,49.81-1.47,73.76c-0.47,24.18-3.47,47.64-4.89,71.35c8.9-23.2,12.43-46.35,13.97-70.22
					C1962.2,998.71,1961.12,974.18,1954.14,947.81z M1965.3,904.22c-5.32,4.23-10.74,8.3-16.27,12.23c0.43,0.34,0.85,0.66,1.27,1
					C1955.48,913.22,1960.49,908.8,1965.3,904.22z"/>
			</g>
			<g>
				<path class="st8" d="M2231.18,898.14c-0.19-0.12-0.35-0.17-0.52-0.25C2230.85,898.16,2231.06,898.35,2231.18,898.14z"/>
				<path class="st8" d="M2170.32,908.06c-0.87,0.06-1.72,0.22-2.53,0.41c0.32,0.14,0.69,0.25,1.15,0.27L2170.32,908.06z"/>
				<path class="st8" d="M2273.09,901.2c-0.37-0.44-1.03-0.87-2.28-1.2C2271.63,900.49,2272.39,900.88,2273.09,901.2z"/>
				<path class="st8" d="M2113.5,945.48c-0.69,0.67-1.34,1.34-1.85,2.02C2112.85,946.46,2113.34,945.87,2113.5,945.48z"/>
				<path class="st8" d="M2190.38,905.95c-0.85-0.07-1.58,0.08-2.19,0.22C2188.96,906.2,2189.66,906,2190.38,905.95z"/>
				<path class="st8" d="M2231.44,897.54C2231.63,898.16,2233.14,897.92,2231.44,897.54L2231.44,897.54z"/>
				<path class="st8" d="M2250.99,897.06c-0.62-0.13-1.25-0.26-1.89-0.39C2249.7,896.88,2250.28,897.09,2250.99,897.06z"/>
				<path class="st8" d="M2249.1,896.67c-0.52-0.2-1.07-0.37-1.75-0.3L2249.1,896.67z"/>
				<path class="st8" d="M2344.89,1221.44c-0.05-0.06-0.09-0.11-0.11-0.18c-0.04,0.06-0.07,0.09-0.12,0.17L2344.89,1221.44z"/>
				<path class="st8" d="M2362.58,967.05c-0.66,2.26,2.17,3.16,3.43,5.8C2364.7,970.87,2364.19,967.08,2362.58,967.05z"/>
				<path class="st8" d="M2286.04,909.21c-1.44-1.32-7.52-2.07-10.14-2.32C2278.95,907.51,2285.96,910.59,2286.04,909.21z"/>
				<path class="st8" d="M2172.06,911.34c1.66-0.4,4.77-1.74,5.06-2.91c-2.51,1.05-4.67,2.16-7.24,4.33
					C2170.95,912.24,2172.52,912.44,2172.06,911.34z"/>
				<path class="st8" d="M2149.47,920.21c0.86-1.11,2.57-1.58,1.77-2.25C2150.4,917.9,2148.41,919.99,2149.47,920.21z"/>
				<path class="st8" d="M2030.83,1046.28c-0.98,2.67-0.6,4.34,0.85,3.73C2031.94,1046.96,2030.97,1048.54,2030.83,1046.28z"/>
				<polygon class="st8" points="2031.07,1053.86 2029.9,1055.59 2031.8,1053.55 				"/>
				<path class="st8" d="M2037.04,1120.51l-2.16-2.45C2035.68,1118.86,2036.66,1123.13,2037.04,1120.51z"/>
				<polygon class="st8" points="2090.4,1209.09 2094.18,1211.8 2093.69,1211.19 				"/>
				<path class="st8" d="M2234.3,870.07l2.68,0.99C2238.67,865.66,2236.41,869.31,2234.3,870.07z"/>
				<path class="st8" d="M2234.3,870.07l-1.92-0.72C2232.9,870.22,2233.58,870.31,2234.3,870.07z"/>
				<path class="st8" d="M2227.65,861.73c-4.5-3.61-11.28-1.83-11.44,5.69C2219.97,862.66,2225.39,868.47,2227.65,861.73z"/>
				<polygon class="st8" points="2219.88,873.29 2222.75,871.16 2223,867.57 				"/>
				<polygon class="st8" points="2225.5,874.29 2224.91,873.01 2219.75,876.91 				"/>
				<path class="st8" d="M2201.83,867.02l4.02-1.62c4.63,4.21-1.48,6.85,1.61,9.69c4.97-0.8,0.2-10.3,6.93-9.7
					c-1.09-4.47-10.45,1.63-10.57-5.62C2197.76,858.41,2204.27,863.99,2201.83,867.02z"/>
				<path class="st8" d="M2085.81,1047.82c-0.33,0.16-0.46,0.3-0.7,0.45C2085.88,1048.11,2086.45,1047.94,2085.81,1047.82z"/>
				<path class="st8" d="M2097.95,1101.25c-0.44,0.93-0.59,1.77-0.62,2.55c0.61-0.45,1.15-0.93,1.54-1.46L2097.95,1101.25z"/>
				<path class="st8" d="M2078.34,1009.7c0.99-0.63,1.71-1.24,2.29-1.82C2079.56,1008.03,2078.68,1008.52,2078.34,1009.7z"/>
				<path class="st8" d="M2136.18,1145.66c0.59,0.53,1.24,0.99,2.05,1.16C2137.45,1145.77,2136.8,1145.51,2136.18,1145.66z"/>
				<path class="st8" d="M2102.84,1082.36c-0.42,0.78-0.56,1.45-0.42,1.96C2102.86,1083.58,2102.82,1082.97,2102.84,1082.36z"/>
				<path class="st8" d="M2137.57,882.66c-1.39,0.08-2.06,1.01-2.41,2.22C2136.4,885.39,2137.34,885.04,2137.57,882.66z"/>
				<path class="st8" d="M2116.5,897.82c0.02-0.06,0.06-0.09,0.1-0.12C2115.96,897.11,2116.01,897.3,2116.5,897.82z"/>
				<path class="st8" d="M2103.44,908.04c0.02-0.13,0.06-0.22,0.09-0.33C2102.97,907.38,2102.81,907.36,2103.44,908.04z"/>
				<path class="st8" d="M2135.16,884.88c-3.26-1.34-8.74-8.68-5.79,1.25l1.2,0.84c-2.65-1.02-2.68,3.48-4.02,4.86
					c0.69,0.68,1.31,1.18,1.92,1.61c0.86-0.43,2.09-0.84,4.08-1.3C2135.61,892.72,2134.32,887.91,2135.16,884.88z"/>
				<path class="st8" d="M2083.99,1047.51C2085.83,1047.41,2084.95,1046.01,2083.99,1047.51L2083.99,1047.51z"/>
				<path class="st8" d="M2078.39,1029c-0.22,0.57-0.43,1.13-0.58,1.73C2078.26,1030.21,2078.69,1029.71,2078.39,1029z"/>
				<path class="st8" d="M2105.21,966.82c-0.19,0.01-0.3,0.06-0.5,0.05C2105.52,967.54,2105.52,967.22,2105.21,966.82z"/>
				<path class="st8" d="M2077.48,1032.36c0.04-0.55,0.2-1.09,0.33-1.63C2077.39,1031.18,2077.05,1031.67,2077.48,1032.36z"/>
				<path class="st8" d="M2412.01,916.7c1.83,1.01,0.43,3.52,0.87,5.43c7.7-0.73-4.89-6.8,3.3-5.66c-1.13-1.44-2.68-2.05-4.2-2.52
					l-3.33,5.91C2412.64,921.16,2408.88,916.68,2412.01,916.7z"/>
				<path class="st8" d="M2441.04,972.62c0.07,0.81,0.13,1.54,0.18,2.2C2441.99,973.42,2441.74,972.84,2441.04,972.62z"/>
				<path class="st8" d="M2073.38,1194.55c-1.07-0.26-2.17-0.48-3.14-0.59C2071.4,1194.78,2072.42,1194.81,2073.38,1194.55z"/>
				<path class="st8" d="M2357.47,1122.14c5.58,4.27,0.05-0.84,4.41-0.77l-2.54-3.44
					C2357.6,1118.93,2358.09,1120.93,2357.47,1122.14z"/>
				<path class="st8" d="M2412.22,913.49c-0.17,0.14-0.32,0.26-0.52,0.38c0.09,0.03,0.16,0.04,0.27,0.08L2412.22,913.49z"/>
				<path class="st8" d="M2337.72,866.76c0.33-0.26,0.66-0.5,0.97-0.82C2338.25,866.14,2337.95,866.43,2337.72,866.76z"/>
				<path class="st8" d="M2450.72,1016.15c-0.34-1.81-0.68-3.59-1.02-5.38c-0.49-1.76-0.95-3.54-1.31-5.4l1,0.1
					c1.51-6.61-0.14-12.39-3.15-17.6c-3.25-5.16-7.46-9.88-10.47-15.33c1.25,0.57,4.04-0.28,5.27,0.08
					c-0.45-6.66-4.4-16.49-12.46-17.26c1.77-5.14,0.64-6.02-0.7-6.99c-1.32-1.02-2.74-2.17-2.1-8.26c0.87-1.19,1.59,0.17,2.18,0.58
					c-0.34-5.48-2.78-8.07-4.69-12.74c-5.25-3.03-10.24-3.51-14.49-4.64c-4.33-1.08-7.55-3.06-10.55-8.41
					c7.58-7.39,6.95,3.9,13.46-1.04c-2.92-0.9-5.99-1.07-6.4-5.27c4.5-1.13,2.26-1.37,6.14-2.78c0.19-3.95-15.41-0.74-14.56-1.28
					c-1.57,1.29-1.78,2.7,0.04,4.29c-6.61,2.3-8.3-8.54-14.64-10.47c1.29,1.43,4.18,6.9-0.92,8.96c-4.06-6.78-12.77-1.01-19.1-1.11
					c-1.89-8.15,9.34-3.47,13.34-9.79c0.92-2.8,2.53-9.29,6.72-9.38c-3.88-5.9-11.91-3.66-17.42-5.89l1.36-1.58
					c-3.6-2.05-8.25-2.78-12.71-3.22c-4.42-0.54-8.23-1.43-10.03-4.98l1.8,3.9c-1.74,0.4-4.86-2.21-8.77,0.4
					c1.69-2.55-0.33-6.83,1.16-8.91c-8.27,6.66-18.53-2.51-25.8,5.56c-0.81-3.27,2.36-6.9,3.93-9.01c4.19,2.77,4.64,5.65,8.85,2.69
					c-3.75-1.64-5.36-5.56-3.8-7.63c-6.61,4.65-16.64,4.03-20.65,9.89c-1.55-4.26-3.66-7.01-0.96-12.17
					c-6.59-0.02-6.26,4.77-6.16,8.89c0.12,4.16,0.07,7.78-6.2,6.11c-4.44-6.93,7.79-5.8,0.05-9.78l1.77-0.48
					c-2.47-15.99-6.89,9.17-13.12,7.06c0.7-8.17,5.89-4.46,2.38-11.33c-6.92,0.88-11.47,12.39-17.09,8.89l1.4-3.27
					c-3.99-0.22-11.6-2.2-15.64-1.74c-0.11-1.6,0.46-1.35,1.25-1.75c-7.35-3.44-3.2,3.98-9.18-1.91l-1.76,3.84
					c3.08,2.94,8.51,7.17,12.53,2.76c-3.93,4.42,5.05,10.52,2.58,17.29l0.93-2.73c0.83,1.36,1.71,2.55,2.59,3.7
					c-4.04-0.19-8.76,1.77-13,1.31c0.84-0.7,2.73-0.08,4.34-0.24c-3.89-1.01-7.69-1.36-11.38-1.72c-3.7-0.4-7.3-0.78-10.87-1.17
					c-7.16-0.38-14.24-0.63-21.96-1.41l-3.56,3.42l-1.57-0.48c1.69-2.76,0.11-10.93,4.4-10.73c-2.86-1.21-3.12-4.81-2.01-7.62
					c-3.06-0.33-9.5-0.37-7.48,3.41l1.25,0.69c0.32,2.62-0.98,3.96-1.41,5.43c-3.77,0.98-2.9-3.98-4.15-5.68
					c-6.89,0.13,2.08,9.93-3.69,11.09l-1.3-1.69c-1.39,2.24-3.66,3.93-4.47,6.79c-1.79,0.49-3.63,0.94-5.37,1.48
					c-1.64,0.44-3.23,0.97-4.82,1.56c-0.69-3.37,1.32-3.83,3.8-3.85c3.17-0.04,6.92,0.58,7.26-3.73c-3.83-1.71-0.49-7.18-0.1-10.71
					c-2.62,3.08-5.1,6.25-7.5,9.33c-1.37-1.59-6.77-7.24-6.6-1.72l0.87,0.03c-3.14,2.97,0.08,7.83-3.71,7.51
					c-1-0.98-0.97-3.53-1.11-4.54c-3.4,0.18-1.07,4.14-2.4,6.24c-3.37,0.2-1.03-6.05-4.09-6.34c-0.96,6.64-5.87,1.39-8.7,3.15
					c2.51,3.34,0.88,7.09,0.18,10.76c-0.03,0.14-0.05,0.26-0.08,0.4c-1.59,0.77-2.98,1.54-4.14,2.31c-0.54-1.25-1.21-2.44-2.22-3.4
					l5.32-2.89c-2.87-4.18-4.87-1.03-7.14,2.12c-2.29,3.18-4.81,6.29-9.7,2.7c-2.93,1.64-1.37,2.25-9.43,1.99l6.23,6.65
					c-3.75,0.22-7.62-3.05-8.75-4.27c-1.2,1.63-2.72,2.5-4.4,3.29c-0.47-1.32-0.69-2.68-0.03-3.78c-5.15-2.38-4.64-0.47-3.56,2.21
					c0.44,2.68-1.27,3.82-2.87,5.17l-0.8-3.82c-0.47,1.45-0.99,3.25-0.02,4.56c-0.62,0.61-1.09,1.32-1.29,2.26
					c1.47,0.79,6.02,3.79,9.64,3.65c-7.79,2.4-10.92,7.43-20.54,7.29c-1.75-1.97-2.19-6.32-2.99-5.92
					c-3.27,1.64-2.38,7.47,0.76,9.85c-0.31,0.72-0.62,1.21-0.93,1.6c-2.1-1.03-4.43-2.03-5.8-1.1c-0.87-0.26-1.82-0.27-2.82,0.4
					c4.61,5.35-1.81,8.27-0.11,11.35c1.47-0.74,2.51-2.22,3.42-3.85c0.88,2.13,1.88,4.22,2.49,5.92c-0.65,0.65-1.33,1.33-2.02,2
					c-1.84-3.93-8.37,0.58-5.8-5.88c-10.43-1.22,3.56,6.12-2.28,8.59l-5.07,0.84c-3.99-3.38,1.36-6.25-0.74-6.69l-0.98,2.44
					c-1.62-4.33,6.06-10.64,5.39-19.11c-3.38,2.52-6.5,5.33-9.8,8.06c-1.01,4.15-3.15,7.69-4.92,11.57
					c-1.88,3.81-4.06,7.5-6.04,11.22c-2.1,3.65-3.51,7.6-4.26,11.57c-0.76,3.96-0.79,7.98,0.47,12c0.05-0.17,0.08-0.36,0.1-0.55
					c0.37,0.4,1.21,0.89,2.95,1.85l-1.44-0.01c0.72,1.08,1.46,2.16,2.24,3.24c-0.14,0.25-0.28,0.5-0.42,0.76
					c-4.92,1.07-7.67,5.37-12.63,8.29c4.03-1.67,4.02-1.64,7.79-0.58c0.26,0.13,0.48,0.24,0.73,0.36c-0.63,1.33-1.23,2.67-1.82,4.02
					c-0.47,0.08-1.03,0.27-1.84,0.68c0.57-0.23,1.11-0.27,1.61-0.17c-0.58,1.31-1.18,2.62-1.72,3.94c-0.03,3.86,1.4-2.36,1.57-0.16
					c-0.02,0.57-0.07,1.01-0.13,1.43c-1.55,1.42-2.92,2.8-5.32,2.15c-0.69-1.35,0.76-1.86,1.47-2.42c-0.66-1.39-4.34,3.44-6.42-0.65
					l-0.09,4.58c-3.64,1.71-4.27-2.97-6.45-2.5c0.27,4.02,2.25,7.45,4.28,10.67c2,3.22,4.08,6.25,4.92,9.67
					c-1.89-0.66-10.01-2.26-7.66-1.74c-1.5,2.19-0.09,4.96,1.86,7.85c-0.93,0.72-1.54,1.46-1.29,2.27l2.45-0.6
					c1.08,1.52,2.17,3.04,2.95,4.51c-0.16,0.21-0.29,0.43-0.44,0.65c-0.03-0.61-0.09-1.25-0.4-1.87c-0.78,2.07-1.36,4.12-1.84,6.15
					c-1.55,0.31-0.68-3.88-0.13-6.2c-2.8-0.98-3.05,7.9-5.02,3.86c-0.37,5.39,1.51-0.5,2.03,2.83l-1.28,4.5l1.45-3.4
					c0.23,3.97,2.12,5.52-0.16,10.38c0.11,0.38,0.28,0.75,0.42,1.13c-0.33,1.61-0.63,3.24-0.99,4.84c-0.55,3.23-1.17,6.47-1.89,9.76
					c0.01-1.09,0.76-1.86-0.45-2.51l-0.84,4.01c0.32,0,0.61,0.18,0.88,0.38c-0.34,1.45-0.76,2.94-1.17,4.42l-0.49-0.14
					c0.09,0.22,0.17,0.59,0.26,0.98c-0.71,2.49-1.51,5.03-2.49,7.68c2.15,0.83,4.29,1.59,6.44,2.36c0.18,1.06,0.46,1.99,0.8,2.84
					l-3.12,3.21c-0.62,4.59-0.8,8.94-0.12,12.96c0.78,4.01,2,7.79,3.47,11.44c1.6,4.47,4.02,8.6,6.55,12.78
					c0.11,0.45,0.33,1.01,0.67,1.72c1.02,2,2.9,4.61,2.84,6.62c-0.27-0.03-0.43-0.26-0.57-0.51c0.11,0.32,0.19,0.6,0.21,0.93
					c-1.39-2.46-3.64-6.51-5.66-6.71c1.74,4.43,4.9,2,5.19,8.03c0.61,0.89,0.97,1.82,1.17,2.76c-0.27,0.22-0.55,0.45-0.86,0.66
					c-0.11-0.54-0.32-1.2-0.79-2.1l0.33,1.28c-0.62-0.14-0.68,3.24-2.18,0c0.14,0.83,0.6,1.47,1.1,1.88
					c-0.95,0.67-1.8,1.39-2.14,2.35c2.09,5.57,5.65,8.01,9.43,10.05c0.14,0.08,0.29,0.15,0.43,0.23c3.1,5.97,4.3,1.4,7.24,7.74
					c-0.81-2.25,2.42,0.6,1.27-2.46c0.66,0.55,1.31,1.17,1.95,1.83c0.13,0.17,0.25,0.34,0.38,0.52c-3.09,0.12-10.54,1.46-8.38,5.74
					c2.59-0.46,6.19-1.96,6.44,1.39l-3.02,0.05c-1.79,4.38,2.62,4.8,4.33,10.58c1.81,2.33,3.99,4.32,6.42,6.02
					c1.42,3.14,3.59,5.81,5.57,6.67c0.09-0.91,0.68-2.31,1.58-2.97c1.5,0.55,3.06,0.99,4.67,1.34c0.89,0.84,1.82,1.83,2.88,3.38
					c-1.44,0.37-4.61-3.55-5.56-2.37c0.49,1.04,0.93,2.12,1.47,3.13c-5.13-6.51-1.59,3.21-6-1.62c0.82,2.44,2.84,2.45,4.52,4.31
					c-0.42,0.23-0.85,0.44-1.31,0.57c0.75,0.18,1.48,0.4,2.16,0.66c0.16,0.29,0.33,0.56,0.48,0.92c0-0.22-0.01-0.47-0.02-0.75
					c1.04,0.44,1.92,1.02,2.48,1.78c-0.97-0.26-1.7-0.29-1.16,0.97l1.8,1.41c-0.08,0.93-0.44,2.02-1.22,3.32
					c3.51,3.17,4.57,5.23,10.88,5.35c-2.79-0.09-2.41-2.97,0.12-3.97c0.75,0.6,1.49,1.21,2.26,1.79c0.81,1.12,1.87,2.28,2.82,3.48
					l-4.21-2.99l-0.41,0.67l4.62,2.32c2.08,2.65,3.59,5.51,0.51,8.58c17.59,13.63,37.83,28.57,60.16,37.53
					c5.23-2.23-2.26-2.47,0.85-4.25c7.25-2.74,3.3,4.07,9.05,1.85l-3.23,3.24c3.15,1.5,7.12,1.06,11.1,0.03
					c2.07-0.51,4.19-1.33,6.25-2.14c0.82,0.56,1.57,1.1,2.19,1.55c1.19,0.17,2.35,0.34,3.52,0.5c0.73,1.12,1.27,1.72-2.07,2.48
					c3.15,0,2.2,21.62,5.88,18.07c0.14-6.64,0.4-13.26,0.76-19.86c1.82,0.29,3.63,0.63,5.44,1.03c1.69,3.79,3.78,7.21,5.41,7.5
					c0.12,5.03-4.71,3.3-7.37,2.59c-2.19,8.24,8.36,6.79,2.88,13.67c6.39-0.37-0.11-4.33,4.05-6.8l4.97,2.57l-3.62-3.38
					c4.79-1.78,6.98-7.85,12.1-2.4c2.26-2.33,4.47-5,6.6-7.59c0.06,6.58,4.13,1.44,6.99,3.12l-2.11,4.09c4.06,0,5.56,1.2,8.08,3.73
					c-2.48,5.67-3.68-1.56-4.88,3.85l4.55,2.15c0.08-3.73,2.97-6.52-0.19-8.91c4.17-6.45,6.28-12.07,15.31-12.38
					c-0.02,0-0.03,0.01-0.04,0.01c0.29-0.01,0.55-0.05,0.84-0.07c4.85,6.12-4.56,5.88-2.46,12.06c7.95,1.51,10.49-7.82,13.38-13.35
					c1.05-0.18,2.11-0.36,3.16-0.54c1.56-0.39,3.12-0.79,4.73-1.2l-0.21,0.38c5.39-0.36,10.4-1.59,15.17-3.56
					c0.03-0.02,0.07-0.03,0.1-0.05c1.23,0.47,2.38,1.07,3.08,2.15l-1.99,5.15c2.03-1.9,4.65-0.82,4.71,2.42
					c-1.82-5.69,8.7-7.66,12.86-12.17l-1.83-3.39c1.81-0.68,3.68-1.52,5.44-2.47c3.03-1.61,5.71-3.46,6.92-5.36
					c0.83-0.07,1.51-0.16,2.08-0.27c-2.4,3.25-4.3,7.27-6.53,10.79c-2.55,3.88-5.45,7.47-9.96,7.26c-0.11,6.29,1.2,5.58,3.21,3.67
					c1.99-1.96,4.42-5.42,7.09-4.09c0.12,0.73-0.09,1.05-0.35,1.28c0.36-0.1,0.69-0.16,1.11-0.03c-2.44,2.45-6.63,6.11-5.77,12.13
					c4.88-2.77-0.01-12.75,7.81-10c3.34-4.83,10.47,2.69,13.7,2.36c1.34-5.49-2.5-14.51,5.24-16.14l-0.23,7.65
					c8.23-3.82-0.49-10.79,6.86-14.05c-2.87,0.51-0.73-7.05-5.5-4.92c0.29-1.7,1.19-3.26,2.44-4.56c0.04-0.02,0.07-0.04,0.11-0.06
					c0.1-0.11,0.17-0.2,0.27-0.3c1.81-1.73,4.24-2.94,6.77-3.22c0.34-1.25-0.63-1.95-1.55-3.43c0.45-0.65,0.9-1.28,1.36-1.9
					c0.32-0.45,0.68-0.87,1.03-1.3c-0.1,1.01-0.24,1.88-0.58,2.22l1,0.31c-0.56,0.17-1.13,0.33-1.72,0.64
					c-0.83,2.15,1.04,0.6,2.39-0.43l0.83,0.26c-0.09,0.15-0.16,0.29-0.28,0.48c0.18-0.14,0.3-0.28,0.46-0.42l1.96,0.62
					c-0.49-0.54-0.78-1.04-0.98-1.51c0.5-0.53,0.94-1.05,1.34-1.56l-1.57-0.15c0.16-1.11,0.82-2.08,1.23-3.07
					c-0.26-0.32-0.48-0.57-0.71-0.81c0.83-0.73,1.77-1.53,2.81-2.39c0.53,0.39,1.02,0.82,1.43,1.3c-1.14,1.71-4.06,3.47-3.07,4.95
					c1.13-1.41,1.99-2.87,3.71-4.12c1.53,2.27,2.15,5.16,2.39,7.89l-0.95-0.07c2.01,2.08,2.15,3.16,5.34,2.66
					c-0.33-3.23-3.2-5.7-5.07-8.74c1.17-0.64,2.27-2.93,3.08-5.01c2.33-0.72,3.9-4.41,9.43-4.55c2.75,7.56-6.02,4.41-2.9,10.93
					c5.04-2.28,2.95-7.14,8.31-9.32c1.86,3.29-2.28,6.97,0.81,10.3c1.43-0.19,2.92-0.34,4.33-0.59c-7.09,6.05,7.38,6.41,2.61,12.41
					c4.84,0.26,0.08-7.78,6.87-7.47c-3.26-1.56-9.99-3.69-8.51-9.06l5.33-1.8c4.15,1.24,1.28,9.88,5.94,9.88l2.48-5.81
					c-1.7-1.54-4.45-0.59-5.33-4.05c4.06-0.37-2.17-10-1.99-14.78c2.07-1.92,3.89-3.27,6.52-2.18c-0.02-5.01,1.44-9.07,2.84-13.01
					c1.42-3.91,2.29-8.11,1.66-12.52c1.07,6.25,6.28,4.66,10.7,4.5c-2.31,4.73,3.29,9.21,7.16,11.72c1.43-3.2-3.25-9.3-6.16-9.42
					c5.58-2.59-1.86-5.84,4.87-6.83c3.84-1.11,4.95,5.26,7.77,5.93c3.61-4.85-6.32-6.23-1.55-10.71c0.63,0.81,0.57,1.47,1.95,1.75
					c3.1-2.18,2.15-7.16-0.55-9.55c4.96,0.81,6.11-1.57,6.87-3.47c0.64-1.97,1.01-3.46,4.87-1.02c1.52-8.74-4.96-1.14-7.03-4.14
					c-2.12-4.85,3.46-8.86,5.62-10.07c-0.68,1.9,0.75,4.67-1.37,5.84l6.44,1.15c8.64-7.84-9.96-11.68-1.56-18.76
					c1.31,5.98,3.86,3.33,7.09,7.43c-0.9-2.09,3.49-8.94-2.67-6.13c1.79-3.36,3.75-5.45,5.73-7.57c-1.04-3.93-1.82-7.97-5.33-10.95
					c1.91-4.78,7.2-7.43,10.5-9.32c-0.64-5.9,0.52-11.05,2.23-16.34c0.79-2.64,1.56-5.33,1.94-8.12c0.35-2.79-0.06-5.71-1.07-8.72
					l-0.43,0.84c1.63-8.92-8.55,3.35-7.86-5.79c7.66,1.6,5.48-5.29,9.69-8.31c1.94-5.82,0.14-10.91-1.33-15.7
					c-0.76-2.4-1.47-4.76-1.73-7.2c-0.46-2.43-0.45-4.95,0.44-7.78c1.61-0.14,3.63,0.29,4.13,2.36
					C2451.67,1023.58,2451.32,1019.78,2450.72,1016.15z M2109.5,902.47l-0.52-1.72c0.2,0.56,0.4,1.15,0.54,1.7
					C2109.52,902.45,2109.52,902.45,2109.5,902.47z M2127.41,932.73c0.71,0.49,2.03,0.73,1.55,1.51
					C2128.28,933.88,2127.59,933.41,2127.41,932.73z M2101.47,966.34l-1.25-0.03C2099.94,964.34,2099.39,962.96,2101.47,966.34z
					 M2085.28,1008.27c-0.72,1.43-2.64,2.53-6.34,2.08c-3.19-1.95-1.52-4.89,1.03-6.87c2.41-2.03,4.96-3.36,2.62-3.11
					c-1.05-5.43,1.66-2.83,3.67-2.45c-3.36,3.67-2.31,6.73-5.63,9.96C2082.18,1007.67,2084.07,1008.12,2085.28,1008.27z
					 M2273.67,902.95c-1.63-0.54-3.15-1.48-3.39-2.83c2.91-2.13,12.28,5.64,10.65,3.57c5.03,0.84,3.14,1.37,3.26,2.13
					c-4.41-2.24-7.13-2.72-11.09-4.62C2273.63,901.84,2273.57,902.5,2273.67,902.95z M2318.37,922.25c-0.01,0.12,0,0.26-0.03,0.35
					c-0.17,0.01-0.36,0.02-0.6,0.02l-0.4-0.67C2317.73,922.07,2318.09,922.17,2318.37,922.25z M2258.06,884.54
					c-0.29,0.01-0.53,0.04-0.82,0.05c0.09-0.13,0.18-0.38,0.28-0.66C2257.7,884.13,2257.88,884.34,2258.06,884.54z M2210.08,895.23
					c5.32,0.47-0.66,1.86,2.06,2.72c-0.9,0.95-4.56,0.4-7.73,0.79c-3.17,0.44-5.86,1.26-4.78,3.79c-2.64,0.47-5.49,2.97-9.24,3.42
					c3.43,0.2,8.31,1.23,12.14-0.6l-0.17-3.02c3.08-0.56,3.52-2.75,5.84-2.54c-1.13,0.92,1.16,2.09,3.66,1.72
					c-0.75-0.39-1.75-0.24-1.51-0.78c4.68-0.46,5.22-2.54,10.91-3.41c-4.71-0.54-5.71-1.39-10.25-2.47
					c1.06-2.17,3.14-0.47,5.75-0.86c-0.38,0.31-0.93,0.39-0.14,0.77l2.77-1.16c5.96,0.62-0.68,3.06,4.17,3.9
					c3.29,1.95,4.57-0.75,7.11,0.38c-0.16-0.2-0.33-0.41-0.48-0.56c0.57,0.06,0.97,0.14,1.27,0.21c-0.02-0.05-0.04-0.09-0.04-0.15
					c3.12-0.15,6.44,0.18,7.47-1.35c0.27,0.7,2.76-0.07,3.83-0.32c1.78-0.36,6.27-1.56,8.48,1.35c-0.07,0.01-0.13-0.02-0.2-0.02
					c3.84,0.9,6.69,2.13,5.69,2.84c2.02,0.52,3.97,1.41,5.94,2.09l-1.11,1.83c5.57,0.87,5.32-0.44,9.7-1.49
					c0.91,0.56,2.05,0.99,3.27,1.42c1.19,0.51,2.48,0.96,3.76,1.33c2.54,0.74,5.02,1.18,6.43,1.3c0.4,0.23,1.05,0.48,2.16,0.77
					l-1.97-1.58c4.2,1.66,4.12,0.39,6.9,1.53c-0.49-0.45-0.52-0.6,0.86,0.44c-0.32-0.16-0.59-0.3-0.86-0.44
					c0.24,0.21,0.58,0.48,0.98,0.75l-0.07-0.28c0.43,0.26,0.89,0.53,1.45,0.87c-0.22,0.13-0.81-0.19-1.38-0.58l0.22,0.87
					c2.35,3.56,5.51,1.3,8.69,3.69c-0.37-0.09-0.99-0.24-1.34-0.43c1.74,1.45,3.16,5.37,4.79,4.19c0.35,0.4,1.14,0.53,2,0.52
					l1.21,1.1c-0.51-0.42-0.89-0.78-1.19-1.1c1.13,0,2.29-0.14,2.19,0.31l3.16,2.23c0.85,1.36,1.94,2.24,3.31,2.16
					c0.44,0.19,0.89,0.37,1.31,0.5l0.34,1.21c0.12,0.06,0.17,0.11,0.27,0.17c-0.95,0.36-2.62-0.09-3.58,0.66
					c-1.28,4.89,4.41-1.74,3.73,1.65c0,0-0.59,0.84-1.16,1.05c4.91,2.3,5.95,6.5,9.6,10.68c2.08-2.46,3.52-3.14,4.68-3.02
					c0.56,0.59,1.11,1.26,1.63,2.05c0.61-0.04,0.83-0.33,0.88-0.7c0.96,0.79,1.94,1.58,3.3,1.33c-0.36,0.25-0.6,0.53-0.77,0.83
					l-2.53-0.66c1.03,0.42,1.77,0.74,2.39,1.01c-0.65,1.75,0.99,4.09,0.98,5.98l2.87-1.26l0.61,3.33c4.27,2.71,1.16-0.86,3.09-1.88
					l-3.06-1.74l2.92-1.28c1.93,3.5,3.73,7.08,1.61,7.67c3.97,4.73-0.05-2.65,2.73-1.03l0.4,0.61c-1.22-1.82-1.61-3.81-1.81-5.37
					c0.14-0.26,0.4-0.32,0.7-0.31c-0.06,1.85-0.59,4.29,1.96,4.68l0.56-1.87c0.89,0.07,1.61,0.65,2.22,1.5l-2.05,0.52
					c1.23,1.05,2.24,1.55,3.15,1.78c0.13,0.43,0.24,0.89,0.34,1.36c-0.09-0.07-0.13-0.12-0.25-0.2l-1.99,1.2
					c2.02,2.71,0.4-0.7,1.61-0.16c0.22,0.5,0.55,1.07,0.94,1.54c0.17,2.58-0.15,5.32-1.05,7.4c2.49,0.76,4.58,1.76,6.51,2.86
					c0.43,1.54,0.69,2.99,1.98,4.59c0.37-0.72,0.76-1.8,0.05-3.36c2.12,1.46,3.83,3.13,5.24,4.95c-0.23,0.11-0.6,0.09-1.36-0.32
					c0.55,1.22,1.7,1.41,2.44,1.72c0.22,0.33,0.42,0.66,0.62,0.99c-0.04,0.17-0.1,0.36-0.22,0.6c0.25,0.05,0.41,0.05,0.55,0.03
					c2.45,4.41,3.53,9.4,3.79,14.41c0.32,5.56,0.41,11.01,0.42,16.71c0.13,2.81,0.48,5.59,1.25,8.37c0.43,2.89,1.25,5.79,2.66,8.78
					c3.14,1.01,4.22-2.34,8.57-1.99c1.7,2.47,1.6,3.17,2.23,5.65c2-2.73-1.03-1.73,1.59-1.98l-3.53-3.24
					c0.61-0.34,0.99,0.01,2.18-0.66c-1.16-1.1-3.33-2.13-3.28-3.88c1.26,0.73,3.23,0.98,4.95,1.35c0.49,1.13,0.82,2.1,0.43,2.34
					c0.5-0.15,0.13-1.06-0.28-2.2c1.3,0.05,2.25,1.18,3.08,2.5c-0.04,0.24-0.02,0.45-0.14,0.74c-0.98-0.05-1.38-0.41-2.18-1.15
					c0.16,2.84,3.43,2.28,2.15,4.73c-1.11,2.87,0.86,1.83-2,2.72l-2.45,8.38c4.29,1.38,4.88,3.62,3.97,5.58
					c-0.93,1.98-2.98,3.66-3.33,4.31c-6.17-0.37-1.96-5-8.39-6.12c-1.37,1.05-2.61,2.06-4.08,3.07l4.87-0.32l-1.17,3.9l-0.95-0.14
					c1.92,0.3,3.84,0.65,2.2,1.73c-0.67,0.21-1.98,0.65-2.29,0.25l2.82,2.56c-5.14-1.35-1.38,2.42-7.23,2.18
					c-1.04,4.22,0.47,6.85,1.73,9.5c1.19,2.61,1.8,5.27-2.34,8.59c2.94-0.96,8.76,3.36,7.33,5.66c-1.63,1.18-2.98,1.3-5.06,0.14
					l2.5,3.5c-4.81,1.16-5.77,2.81-6.23,4.83c-0.6,1.97-0.52,4.36-2.69,6.62l-2.42-0.92c2.41,2.66,4.34,5.57,2.52,8.22l-4.7-2.07
					c-4.7,2.21,9.25,6.04,4.69,8.95c5.18,1.93,8.8,0.29,13.92,1.56c-5.7-0.8-8.08,3.33-3.97,3.73c0.56,5.11-1.2,2.92-2.56,2.77
					c0.72,1.25,1.54,2.56,2.14,3.79c-1.66,2.8-7.07-2.04-9.5-4.26c4.21,4.92-1.02,6.11-3.2,8.52l-1.67-2.28l-2.65,3.28
					c2.71,4.48,0.66,7.95-3.01,9.8l-4.98-5.85c-4.45,0.02,1.52,2.35,2.25,3.55c0.99,5.17-3.48,3.34-8.02,2.54
					c1.33,4.52-2.94,5.24-6.58,5.86c-3.58,0.76-6.93,1.15-4.53,6.59l-3.61-2.42c1.08,5.43-1.84,7.87-4.91,9.61
					c-2.95,1.93-5.28,4-3.2,10.87c-8.12-3.26-7.01,0.02-5.94,3.74c1.14,3.64,2.19,7.57-4.79,4.4l1.42,1.62
					c-11.74,6.09-24.67,9.95-37.19,12.51c-3.07,0.84-6.3,1.03-9.34,1.77c-3.05,0.68-6.05,1.5-9.11,1.9c-3.03,0.57-6,1.32-8.94,2.3
					c-2.97,0.73-5.95,1.42-8.9,2.53l-0.07-3.03c-18.93-1.86-36.84-4.66-54.12-10.77c-17.13-6.09-33.73-15.67-45.91-29.91
					c-4.31-0.67-7.68,5.58-12.29,5.49c-0.75-1.24-3.2-3.38-0.4-5.83c3.33,0.63,4.77-2.68,6.46-3c-1.51-1.5-2.64-3.77-3.61-6.01
					c-1.03-2.2-2.42-3.98-5.39-4.15l-1.89,5.49c-2.51-0.01-2.89-2.79-3.53-4.04c2.33-0.98,5.44-5.56,7.08-5.32
					c-7.39,0.36-6.9-2.07-5.84-4.35c1.11-2.39,3.16-4.99-0.58-6.58c-9.75,4.27-20.78-0.05-30.39-3.08c0.26-1.35,0.8-2.79,1.21-4.16
					c1.49,4.16,6.65-2.82,8.46,2.14c0.29-2.53-0.76-4.33-1.9-6.12c-1.18-1.76-2.53-3.47-2.48-5.69c-2.13,1.6-5.35,2.55-7.04,1.28
					c0.47-2.98,5.01-4.67,4.87-7.66c1.26,0.62,2.44,1.25,3.83,1.78c2.99-2.9-2.05-3.02-3.14-4.6c3.95-1.73,3.68-5.94,8.46-6.36
					c-6.5-2.2-3.94-4.16-8-7.48c-3.79,5.09-5.66-0.07-9.09,0.99c0.85,1.57,1.49,3.17,2.48,4.67c0.68-3.75,1.1-3.22,1.98-2
					c0.93,1.22,2.86,3.01,6.29,1.96c-2.43,3.94-12.83-1.82-10.3,3.37c-2.77-2.86-3.15-4.95-3.82-6.96c-0.71-2.03-1.7-3.98-5.23-7.17
					c2.02,4.16-4.81-0.22-6.64,2.45c-1.15-5.69,2.3-1.75,6.66-4.04c-0.76-2.99,3.46-4.42-2.04-6.77c1.95-5.04,5.47,0.33,8.29-2.3
					c2.6,0.69,1.01,4.04,1.24,6.91c0.28,2.87,1.84,5.15,9.64,3.4c0.53,2.28,6.95,3.96,7.05,7.1c1.67-3.22,6.31-7.71,2.18-10.45
					l-8.95,0.95c-0.65-2.6-6.86-2.54-6.1-4.66c2.63,0.82,6.33-1.41,5.49-3.49c-1.24,0.7-0.91,1.56-2.48,1.44
					c-0.86-4.01-7.01-4.27-8.98-9.4c-2.09,4.29-4.74,5.27-8.43,9.7c-6.35-0.72-1.06-2.94-1.95-5.36c0.88,0.34,1.07,0.85,2.28,0.07
					l-3.17-2.55c2.43-5.63,9.12,0.5,11.99-3.94c5.45-2.9-2.72-4.16,0.39-6.4c-0.57,0.13-1.16,0.27-1.62,0.38
					c0.13-0.51,0.3-0.87,0.49-1.13c-0.15,0.01-0.26,0.03-0.44,0.02c-0.78-2.87-0.14-5.85-4.79-7.1c2.11-0.11-0.5-2.59-1.72-3.71
					c-1.63-1.76-6.51-6.65,1.34-7.91c0.05,0.07-0.02,0.12,0.02,0.19c1.44-3.5,4.17-5.8,6.55-4.53c0.89-1.76,2.14-3.42,3.17-5.1
					l5.81,1.98c-0.37-5.17-3.98-5.56-9.18-10.79c1.11-0.67,1.83-1.61,2.35-2.69c0.6-1.05,0.95-2.25,1.1-3.48
					c0.3-2.46-0.14-5.05-0.77-6.66c0.37-0.31,0.61-0.91,0.67-2.03l-3.01,1.24c1.71-3.88-1.54-4.65-0.49-7.31
					c-0.78,0.31-1.14,0.25,0.44-0.81c-0.19,0.28-0.31,0.55-0.44,0.81c0.37-0.16,0.79-0.41,1.16-0.73l-0.69-0.12
					c0.3-0.38,0.62-0.8,1.09-1.25c0.53,0.4,0.17,0.93-0.41,1.37l2.1,0.36c7.39-0.33-1.1-6.25,2.56-8.62
					c0.06,0.42,0.18,1.14-0.03,1.45c2.39-1.18,11.26,0.36,6.94-2.88c0.78-0.1,0.25-1.18-0.56-2.42l1.57-0.81
					c-0.56,0.37-1.08,0.61-1.58,0.78c-1.06-1.64-2.48-3.49-1.29-2.94l3.64-3.89c1.26-0.38,1.3-1.92,1.13-3.32l2.59,0.64
					c0.64-1.82,1.91-0.99,2.38-0.41c5.41-0.2,6.01-2.62,6.46-5.45c0.48-2.75,0.9-5.86,5.97-6.09c-2.39-3.73-5.77-2.81-7.62-4
					c-0.99-1.52-1.3-3.5-1.4-5.5c0.1-0.29,0.23-0.59,0.44-0.94c1.27-1.04,3.92-3.63,4.74-2.71c-1.87,2.64,0.16,2.26-0.3,3.35
					c0.48-0.43,1.03-0.9,1.55-1.35c1.04,3.53,2.13,6.99,3.31,10.35c-0.86-5.34-0.23-5.08-2.28-10.58l-0.51-0.22
					c1.31-1.12,2.69-2.23,4.19-3.21c4.1,0.19,8,1.13,10.5,4.89c4.57-3.25-4.92-2.59-4.88-6.58l0.72-0.21c-1,0.29-2.24,0.2-3.59-0.1
					c1.42-1.1,2.68-2.25,3.58-3.54l-4.06,1.05c0.92-1.42,2.95-2.62,4.36-3.52l2.89,3.63c1.77-0.84,0.79-1.24-0.33-1.84
					c2.62-4.58,4.74-4.92,6.49-5.27c1.25-0.18,2.51-0.26,4.12-1.11c0.56,0.99,0.71,1.94-0.3,2.59c2.78-0.04,6.14,2.31,7.97,0.52
					c-2.07-2.11-5.29-5.01-7.37-2.59l-0.24-0.53c0.75-0.41,1.56-0.94,2.53-1.82c-0.2-1.57,0.89-3.54,2.59-5.67
					c0.42,0.65,0.69,1.58,0.74,2.93c1.6,0.01,0.53-2.96,0.42-4.29c0.16-0.18,0.3-0.36,0.47-0.55c0.33,0.16,0.84,0.59,1.65,1.45
					c-0.33-1.11-0.66-1.73-1-2.13c1.06-1.12,2.2-2.26,3.37-3.39c0.35,0.1,0.75,0.18,1.24,0.24c-0.13-0.38-0.23-0.77-0.3-1.15
					c1.01-0.97,2-1.92,2.94-2.84c0.14,0.08,0.26,0.11,0.41,0.2c-0.1-0.17-0.11-0.27-0.18-0.42c0.23-0.23,0.48-0.46,0.7-0.68
					c1.2-0.32,2.51-0.37,3.76-0.55c-4.56,1.73,0.94,2.07-4.53,4.49c2.41-0.73,4.59-1.69,6.77-2.63c2.16-0.98,4.28-2,6.58-2.56
					c-1.14-0.49-1.3-1.63,0.38-2.66c2.93-0.5,3.61,0.79,6.88,0.2c-0.95,0.63-1.92,1.17-2.81,1.94c2.43,0.47,3.8-1.45,5.71-2.21
					c1.03,1.21,5.81,0.24,5.35,2c3.79-2.92,5.48-2.54,9.96-4.33c-5.18-0.74,0.92-2.04,0.18-3.12c-1.83,0.52-3.69,0.83-5.47,1.51
					c3.99-0.34,3.38-0.03,1.88,0.4c-1.5,0.48-3.77,1.64-3.22,2.72c-3.86-0.15,4.11-5.21-1.89-3.25c3.49-1.66,5.77-2.01,8.03-2.46
					c2.27-0.48,4.53-1.06,8.25-2.65c-4.6,1.17,0.69-1.71-1.93-2.06c0.1-0.02,0.15-0.02,0.25-0.04l1.37,0.9
					c0.32-0.39,0.58-0.77,0.84-1.16c1.9-0.04-0.44,1.17,1.16,2.18C2205.92,895.72,2207.24,897.2,2210.08,895.23z M2197.32,872.25
					c2.73,2.22,0.5,5.98-0.63,8.84l-1.67-0.51c-1.28,0.07-2.5,0.15-3.73,0.23c-0.08-0.3-0.08-0.52-0.19-0.83l-2.84,0.06
					C2191.77,877.09,2193.26,869.6,2197.32,872.25z M2080.6,1195.81c-0.01,0.03-0.04,0.05-0.04,0.09c-0.04-0.13-0.08-0.2-0.11-0.32
					L2080.6,1195.81z M2077.52,1192.38c-0.45,0.14-0.93,0.42-1.43,0.74C2076.26,1192.48,2076.67,1192.12,2077.52,1192.38z
					 M2089.14,1204.18c0.28-0.09,0.56-0.19,0.88-0.24c0.13,0.41,0.35,0.83,0.6,1.26
					C2090.11,1204.88,2089.64,1204.52,2089.14,1204.18z M2316.7,1237.97c0.84-0.71,1.89-1.53,4.55-2.39
					c0.21,0.65,0.44,1.28,0.62,1.95C2320.05,1236.43,2318.52,1237.37,2316.7,1237.97z M2327.54,1234.65
					c-0.45-0.04-0.86-0.16-1.27-0.28c0.4-0.21,0.82-0.42,1.22-0.64L2327.54,1234.65z M2347.46,1214.15c0.09-0.07,0.15-0.12,0.24-0.2
					c0.02,0.01,0.01,0.03,0.03,0.04C2347.64,1214.05,2347.56,1214.1,2347.46,1214.15z M2349.17,1216.7c0.23-0.14,0.41-0.3,0.67-0.43
					c-0.4,2.01,0.12,1.19,0.18,2.25C2349.68,1217.94,2349.4,1217.34,2349.17,1216.7z M2352.32,1210.43
					c0.59-1.17,1.84-2.41,3.31-3.74C2356.48,1209.49,2354.37,1209.85,2352.32,1210.43z"/>
				<path class="st8" d="M2306.6,1258.59c-0.43,0.16-0.89,0.41-1.5,0.8C2305.7,1259.01,2306.24,1258.89,2306.6,1258.59z"/>
				<path class="st8" d="M2184.36,856.69l-0.04,3.08l3.99,0.97C2187.45,859.62,2185.27,856.78,2184.36,856.69z"/>
				<path class="st8" d="M2126.89,874.17c0.19-3.18-7.88-3.61-6.16,0.73L2126.89,874.17z"/>
				<path class="st8" d="M2108.04,883.19c2.18,5.73-6.11,1.35-3.59,6.41C2104.62,887.42,2111.36,888.05,2108.04,883.19z"/>
				<path class="st8" d="M2143.96,926.09c4.31,3.75,3.12-1.64,6.05-2.05C2148.24,925.22,2142.41,922.39,2143.96,926.09z"/>
				<path class="st8" d="M2096.95,914.82c-2.84-3.21-0.92-4.49,1.59-5.49c0.28,1.51,1.23,3.29,0.88,4.5
					c0.76-5.14,1.44-4.87,2.58-8.57c-4.44,0.07-9.58,2.19-12.83-1.91C2089.89,907.88,2092.18,914.38,2096.95,914.82z"/>
				<path class="st8" d="M2081.06,918.82c-0.23-5.61,4.72-8.15,1.84-14.21c-3.19,3.97-5.42,10.39-4.72,14.02L2081.06,918.82z"/>
				<path class="st8" d="M2122.71,943.35l-0.51,4.95c2.51,0.94,4.98,1.92,7.42,2.93C2130.67,946.13,2126.72,948.09,2122.71,943.35z"
					/>
				<path class="st8" d="M2040.9,994.79c-2.09-1.58-7.27,3.28-3.61,0.72C2039.88,997.16,2044.5,993.89,2040.9,994.79z"/>
				<path class="st8" d="M2094.24,998.12c-2.62,0.76-0.57,7.31,0.56,10.03C2094.42,1005.13,2098.05,999.24,2094.24,998.12z"/>
				<path class="st8" d="M2110.53,1098.68c0.16,0.18,0.44,0.31,0.95,0.33C2111.16,1098.9,2110.87,1098.8,2110.53,1098.68z"/>
				<path class="st8" d="M2108.19,1097.3c0.32-1.57-1.96-3.76-5.13-3.38c1.88,1.81,3.44,3.44,7.47,4.77
					C2109.87,1097.89,2111.56,1096.1,2108.19,1097.3z"/>
				<path class="st8" d="M2110.17,1116.16c-0.87,1.12,2.84,1.83,4.3,0.29C2112.35,1116.33,2112.57,1114.58,2110.17,1116.16z"/>
				<path class="st8" d="M2211.23,1277.13c2.95,2.06,4.93,0.92,4.49-3.41C2212.26,1273.47,2213.89,1276.16,2211.23,1277.13z"/>
				<polygon class="st8" points="2220,1275.2 2221.81,1278.58 2219.74,1273.05 				"/>
				<path class="st8" d="M2239.74,1281.92c1.23-0.64,2.27-1.28,1.29-1.92C2240.88,1280.68,2240.32,1281.45,2239.74,1281.92z"/>
				<path class="st8" d="M2237.66,1280.91l-0.24,2.3c0.36-0.35,1.04-0.66,1.69-0.99
					C2238.52,1282.39,2237.89,1282.11,2237.66,1280.91z"/>
				<path class="st8" d="M2244.21,1284.4l3.39-3.94l-4.35-6.33C2239.06,1277.53,2248.22,1277.24,2244.21,1284.4z"/>
				<path class="st8" d="M2280.38,1258.2c-11.72-1.84-3,15.65-14.07,13.08c5.72,3.98-2.89,4.28-4.42,6.37
					c4.28,1.53,8.33-9.49,11.71-2.21c5.19-2.86,3.9-5.93,2.93-8.89C2275.52,1263.52,2274.87,1260.89,2280.38,1258.2z"/>
				<path class="st8" d="M2264.43,1265.79c-1.46-0.21-4.38-5.25-5.76-0.8C2258.44,1268.94,2263.29,1268.58,2264.43,1265.79z"/>
				<polygon class="st8" points="2286.75,1272.82 2287.06,1270.19 2282.81,1270.75 				"/>
				<path class="st8" d="M2295.64,1269.05l-2.09,5.18C2294.2,1272.26,2299.13,1271.32,2295.64,1269.05z"/>
				<path class="st8" d="M2311.8,1262.82l1.54-0.14c0.17,1.65,4.84,3.82,1.31,6.1C2318.23,1269.08,2317.15,1258.44,2311.8,1262.82z"
					/>
				<path class="st8" d="M2342.89,1241.32l3.77-4.76l-1.93-0.15C2342.88,1237.27,2341.47,1239.67,2342.89,1241.32z"/>
				<path class="st8" d="M2350.58,1243.9c2.46,2.7,5.49-0.24,4.41-3.3C2355.03,1243.62,2352.04,1243.5,2350.58,1243.9z"/>
				<path class="st8" d="M2364.67,1220.17c-3.5,5.43,0.46,17.01-7.15,11.5c0.68,4.12,1.11,8.05,1.53,12.12
					c5.55-1.33-0.83-8.59,2.44-10.14c2.99,0.95,1.68,3.14,3.84,3.69c4.98-0.16,8.34-3.18,8.07-7.33
					C2370.85,1228.58,2365.31,1223.65,2364.67,1220.17z"/>
				<path class="st8" d="M2389.25,1200.75l-1.88,1.4c-0.53,1.72-1.05,3.47-1.74,5.08
					C2387.02,1205.23,2388.06,1202.9,2389.25,1200.75z"/>
				<polygon class="st8" points="2392.46,1207.21 2393.14,1200.16 2390.68,1205.73 				"/>
				<polygon class="st8" points="2395.51,1206.93 2397.82,1201.93 2396.97,1202.33 				"/>
				<path class="st8" d="M2403.57,1195.31c-0.01-2.13,2.59-4.93,5.4-4.13l-3.44-1.01
					C2405.15,1192.26,2399.9,1192.68,2403.57,1195.31z"/>
				<path class="st8" d="M2359.11,1110.13c0.1,0.47,0.27,1.4-1.07,1.12c1.66,1.68,3.65,2.09,5.7,2.47L2359.11,1110.13z"/>
				<path class="st8" d="M2365.71,1113.61c2.54-0.55-0.69-4.26,1.47-5.39l1.76,1.66c-1.62-1.97-3.25-3.89-4.9-5.75
					C2361.83,1107.47,2366.44,1109.98,2365.71,1113.61z"/>
				<path class="st8" d="M2383.82,1038.52c4.18-0.11,3.63-0.95,6.56,1.65c-2.98-3.67-2.76-7.04-3.99-11.39
					c-2.51,1.17-7.49-1.21-6.13,0.23l3.21,4.37l-2.95-0.29C2377.84,1036.83,2385.51,1034.63,2383.82,1038.52z"/>
				<path class="st8" d="M2264.94,863.74c0.88-1.94,0.4-3.9-0.12-5.85C2260.73,859.58,2265.79,863.42,2264.94,863.74z"/>
			</g>
		</g>
		<g>
			<path d="M1553.22,723.3c3.61-270.24-165.99-392.02-165.99-392.02s-88.47-56.15-265.42-56.15c-176.95,0-265.42,56.15-265.42,56.15
				S686.79,453.06,690.4,723.3H1553.22z"/>
			<path class="st3" d="M1479,723.3c3.2-10.57,4.94-21.43,4.94-32.23c0-59.62-52.69-120.93-115.53-126.63
				c-164.12-16.44-329.09-16.44-493.21,0c-62.25,6.48-116.28,66.44-115.53,126.64c-0.14,10.85,1.52,21.7,4.67,32.23H1479z"/>
			<path class="st4" d="M1430.73,545.78c0,0,155.33-11.65,273.95-245.15c0,0,0.75-65.57-77.17-109.02c0,0-54.11,203.42-170.2,289.42
				L1430.73,545.78z"/>
			<path class="st5" d="M1619.59,303.94c-32.69,58.56-97.36,160.31-177.61,214.42l15.33-37.33c116.09-86,170.2-289.42,170.2-289.42
				c77.92,43.45,77.17,109.02,77.17,109.02c-3.17,6.25-6.38,12.33-9.6,18.26c-2.83-5.81-6.29-11.82-10.49-17.93
				C1668.48,277.58,1633.43,279.15,1619.59,303.94z"/>
			<path class="st4" d="M1505.19,541.36c0,0,153.51-133.93,280.87-94.61c0,0,114.04,135.99,75.55,265.03
				c0,0-169.79-145.89-321.77-99.21L1505.19,541.36z"/>
			<path class="st5" d="M1786.07,446.75c-10.34-3.19-20.86-5.24-31.45-6.31c23.78,28.5,50.63,67.83,65.18,113.02
				c11.35,35.24-23.53,67.78-58.04,54.36c-60.88-23.68-153.03-47.87-234.75-21.63l12.84,26.38
				c151.97-46.68,321.77,99.21,321.77,99.21C1900.11,582.74,1786.07,446.75,1786.07,446.75z"/>
			<g>
				<path d="M1008.04,663.44c-3.8,0-7.6-1.63-10.62-4.92c-28.52-31.14-79.14-27.47-79.64-27.43c-8.64,0.69-16.15-7.08-16.75-17.38
					c-0.6-10.3,5.9-19.23,14.55-19.96c2.62-0.22,64.5-4.95,103.1,37.18c6.4,6.99,6.83,18.82,0.96,26.44
					C1016.53,661.4,1012.29,663.44,1008.04,663.44z"/>
			</g>
			<g>
				<path d="M1235.57,663.44c3.8,0,7.6-1.63,10.62-4.92c28.52-31.14,79.14-27.47,79.64-27.43c8.64,0.69,16.15-7.08,16.75-17.38
					c0.6-10.3-5.9-19.23-14.55-19.96c-2.62-0.22-64.5-4.95-103.1,37.18c-6.4,6.99-6.83,18.82-0.96,26.44
					C1227.08,661.4,1231.32,663.44,1235.57,663.44z"/>
			</g>
			<path class="st4" d="M1553.1,609.8c-3.96-23.9-15.77-82.4-42.97-133.6c-3.71-6.99-9.42-12.61-16.3-16.15
				c-33.37-17.15-147.67-65.71-372.03-65.71s-338.65,48.56-372.03,65.71c-6.88,3.54-12.59,9.16-16.3,16.15
				c-27.2,51.2-39.01,109.7-42.97,133.6c-0.78,4.68,3.74,8.37,7.95,6.52c121.99-53.74,423.34-54.91,423.34-54.91
				s301.35,1.17,423.34,54.91C1549.36,618.18,1553.88,614.49,1553.1,609.8z"/>
			<path class="st5" d="M1553.1,609.8c-3.96-23.9-15.77-82.4-42.97-133.6c-3.71-6.99-9.42-12.61-16.3-16.15
				c-4.5-2.31-10.5-5.21-18.02-8.47c23.19,45.42,33.4,96.08,36.88,117.13c0.7,4.25-3.39,7.59-7.21,5.91
				c-110.56-48.71-383.68-49.76-383.68-49.76s-273.12,1.06-383.68,49.76c-3.82,1.68-7.91-1.66-7.21-5.91
				c3.49-21.05,13.69-71.7,36.88-117.13c-7.52,3.26-13.52,6.15-18.02,8.47c-6.88,3.54-12.59,9.16-16.3,16.15
				c-27.2,51.2-39.01,109.7-42.97,133.6c-0.78,4.68,3.74,8.37,7.95,6.52c121.99-53.74,423.34-54.91,423.34-54.91
				s301.35,1.17,423.34,54.91C1549.36,618.18,1553.88,614.49,1553.1,609.8z"/>
			<g>
				<path class="st6" d="M1447.36,659.26c0,22.33-8.22,44.91-21.89,64.04H1479c3.2-10.57,4.94-21.43,4.94-32.23
					c0-46.27-31.73-93.55-75.32-115.08C1432.12,597.98,1447.36,628.86,1447.36,659.26z"/>
				<path class="st6" d="M818.02,723.3c-13.78-19.01-22.04-41.5-21.76-64.04c-0.38-30.49,14.87-60.92,38.28-82.71
					c-43.33,21.67-75.45,68.03-74.86,114.53c-0.14,10.85,1.52,21.7,4.67,32.23H818.02z"/>
			</g>
			<path d="M1328.24,723.3c2.68-6.84,4.38-14.43,4.88-22.45c-4.02,2.41-8.72,3.79-13.75,3.79c-14.82,0-26.82-12.01-26.82-26.83
				c0-14.35,11.27-26.07,25.45-26.79c-8.37-9.9-19.51-15.94-31.74-15.94c-25.98,0-47.04,27.23-47.04,60.82
				c0,9.86,1.82,19.16,5.04,27.39H1328.24z"/>
			<path d="M999.36,723.3c2.68-6.84,4.38-14.43,4.88-22.45c-4.02,2.41-8.72,3.79-13.75,3.79c-14.81,0-26.82-12.01-26.82-26.83
				c0-14.35,11.27-26.07,25.45-26.79c-8.37-9.9-19.51-15.94-31.74-15.94c-25.98,0-47.04,27.23-47.04,60.82
				c0,9.86,1.82,19.16,5.04,27.39H999.36z"/>
		</g>
	</g>
</g>
</svg>
